<svg width="35" height="35" viewBox="0 0 35 35" fill="none" xmlns="http://www.w3.org/2000/svg">
<rect x="5.25" y="6.28223" width="24.5" height="23.3333" fill="#263C56"/>
<path d="M16.9743 0H18.0257C22.3215 0 26.3913 1.82574 30.235 5.47723C32.9369 8.75565 34.4235 11.7232 34.6948 14.3798C34.8983 15.6347 35 16.4317 35 16.7708V18.2122C35 20.541 34.2087 23.2372 32.626 26.3009C30.3198 30.0767 27.0357 32.6995 22.7737 34.1691C20.6145 34.723 18.9244 35 17.7035 35H17.2965C12.8311 35 8.68782 33.2025 4.86676 29.6076C1.62225 26.0126 0 21.8354 0 17.0761V16.8726C0 16.7143 0.0339147 16.5786 0.101744 16.4656C0.101744 16.3865 0.0678295 16.3469 0 16.3469C0.440891 12.978 1.33963 10.2536 2.69622 8.17345C4.84415 4.68023 8.15649 2.19315 12.6332 0.712209C14.3064 0.237403 15.7534 0 16.9743 0ZM14.6003 11.1749L14.702 14.3798C14.702 14.4816 14.6003 14.589 14.3968 14.702H12.6332V18.314H14.3968C14.4985 18.314 14.6003 18.4214 14.702 18.6361V27.5388L14.7529 28.1662H18.4327V18.5344C18.4553 18.3874 18.5231 18.314 18.6361 18.314H21.6376C21.7733 18.314 21.9485 17.1778 22.1633 14.9055V14.702H18.6361C18.5005 14.702 18.4327 14.6342 18.4327 14.4985V12.0058C18.4327 10.9432 19.0544 10.3553 20.298 10.2422H22.3668V7.13905C22.3668 6.93556 21.6432 6.83382 20.1962 6.83382H19.6705C17.2852 6.83382 15.7308 7.72691 15.0073 9.51308C14.8716 9.88614 14.7359 10.4401 14.6003 11.1749Z" fill="white"/>
</svg>
