<svg width="78" height="76" viewBox="0 0 78 76" fill="#ff00ff" xmlns="http://www.w3.org/2000/svg">
<path d="M19.7428 43.1904C17.6709 43.1904 15.7186 44.0072 14.2444 45.4615C12.7701 46.9357 11.9533 48.908 11.9733 50.9799C11.9733 53.0717 12.7901 55.024 14.2842 56.4982C15.7783 57.9924 17.7506 58.8092 19.8424 58.8092C21.9143 58.8092 23.8666 57.9924 25.3408 56.5381C26.8151 55.0639 27.6319 53.0916 27.6119 51.0197C27.6119 48.9279 26.7951 46.9756 25.301 45.5014C23.8069 44.0072 21.8346 43.1904 19.7428 43.1904ZM22.8307 54.0479C22.0338 54.8447 20.958 55.283 19.8225 55.283C18.667 55.283 17.5912 54.8248 16.7744 54.008C15.9576 53.1912 15.4994 52.1154 15.4994 50.96C15.4994 49.8244 15.9377 48.7486 16.7346 47.9518C17.5315 47.1549 18.6072 46.7166 19.7428 46.7166C20.8983 46.7166 21.974 47.1748 22.7908 47.9916C23.6076 48.8084 24.0658 49.8842 24.0658 51.0396C24.0858 52.1752 23.6276 53.251 22.8307 54.0479Z"/>
<path d="M10.3994 55.562C9.70215 54.8647 8.58652 54.8647 7.90918 55.562C7.21191 56.2593 7.21191 57.3749 7.90918 58.0522L12.7502 62.8933C13.0889 63.2319 13.5471 63.4112 14.0053 63.4112C14.4635 63.4112 14.9018 63.2319 15.2604 62.8933C15.9576 62.196 15.9576 61.0804 15.2604 60.403L10.3994 55.562Z"/>
<path d="M56.3591 48.41C57.1162 48.2507 57.674 47.653 57.7736 46.896C57.8732 46.1389 57.4548 45.4018 56.7775 45.0831L41.8959 38.0905L55.622 24.3643C56.2994 24.9022 57.1361 25.201 58.0127 25.201C59.3673 25.201 60.6224 24.5237 61.3994 23.3881L66.6189 15.6784C67.6947 14.1046 67.5154 11.9928 66.2205 10.6979L60.1244 4.60182C58.8494 3.32682 56.6779 3.14752 55.1439 4.20338L47.4142 9.42291C46.3982 10.1202 45.7408 11.2159 45.6213 12.4311C45.5216 13.4471 45.8205 14.4432 46.438 15.2003L32.7119 28.9464L25.7193 14.0647C25.4006 13.3674 24.6634 12.969 23.9064 13.0686C23.1494 13.1682 22.5318 13.726 22.3923 14.4831L18.2486 35.0424C13.3279 34.903 8.66617 36.7557 5.19977 40.2221C1.83297 43.5889 -0.0197629 48.0913 0.000159005 52.8725C0.0200809 57.6538 1.89274 62.1561 5.27946 65.5428C8.6861 68.9495 13.2084 70.8221 18.0295 70.8221C22.7908 70.8221 27.2533 68.9694 30.6201 65.6225C34.0865 62.1561 35.9392 57.4745 35.7998 52.5737L56.3591 48.41ZM32.174 51.3385C32.692 55.7214 31.2177 60.0245 28.1298 63.1124C25.4404 65.8018 21.8545 67.276 18.0494 67.276C14.1845 67.276 10.5388 65.762 7.80953 63.0128C2.17164 57.3749 2.15172 48.2706 7.72985 42.6725C10.3994 40.003 13.9853 38.5288 17.7904 38.5288C18.3482 38.5288 18.9259 38.5686 19.4838 38.6284C20.4002 38.728 21.2369 38.1303 21.4162 37.2139L24.8029 20.3799L30.5802 32.6917C30.8193 33.2096 31.3173 33.5881 31.8752 33.6878C32.433 33.7874 33.0306 33.6081 33.4291 33.1897L50.1634 16.4553C50.5021 16.1167 50.6814 15.6784 50.6814 15.2003C50.6814 14.7221 50.5021 14.2838 50.1634 13.9452L49.2072 12.9889C49.1474 12.9292 49.1275 12.8495 49.1275 12.7299C49.1275 12.6503 49.1673 12.451 49.3865 12.3116L57.0963 7.09205C57.3154 6.93268 57.4748 6.93268 57.5943 7.07213L63.6904 13.1682C63.79 13.2678 63.79 13.487 63.6705 13.6663L58.4509 21.376C58.192 21.7546 57.8134 21.5952 57.7736 21.5553L56.8173 20.5991C56.1201 19.9018 55.0045 19.9018 54.3271 20.5991L37.5927 37.3335C37.1943 37.7319 36.9951 38.3296 37.0947 38.8874C37.1943 39.4452 37.5728 39.9432 38.0908 40.1823L50.4025 45.9596L33.5685 49.3464C32.672 49.5655 32.0545 50.4221 32.174 51.3385Z"/>
<path d="M6.01665 11.2359L5.31938 15.3398C5.19985 15.9973 5.47875 16.6746 6.01665 17.073C6.55454 17.4715 7.29165 17.5113 7.86938 17.2125L11.5549 15.2801L15.2405 17.2125C15.4995 17.352 15.7784 17.4117 16.0573 17.4117C16.4159 17.4117 16.7944 17.2922 17.0932 17.073C17.6311 16.6746 17.91 16.0172 17.7905 15.3398L17.0932 11.2359L20.0815 8.32734C20.5596 7.84922 20.7389 7.15195 20.5198 6.51445C20.3206 5.87695 19.7627 5.39883 19.0854 5.31914L14.9616 4.72149L13.1088 0.976172C12.81 0.378516 12.1924 0 11.5151 0C10.8377 0 10.2202 0.378516 9.92133 0.976172L8.0686 4.72149L3.94477 5.31914C3.28735 5.41875 2.72954 5.87695 2.5104 6.51445C2.31118 7.15195 2.47055 7.84922 2.94868 8.32734L6.01665 11.2359ZM9.56274 8.06836C10.1405 7.98867 10.6385 7.63008 10.8975 7.09219L11.5748 5.7375L12.2522 7.09219C12.5112 7.61016 13.0092 7.96875 13.587 8.06836L15.101 8.2875L14.0053 9.34336C13.587 9.7418 13.4077 10.3395 13.4873 10.9172L13.7463 12.4113L12.3916 11.6941C11.8737 11.4152 11.2561 11.4152 10.7381 11.6941L9.38344 12.4113L9.64243 10.9172C9.74204 10.3395 9.54282 9.76172 9.12446 9.34336L8.02876 8.2875L9.56274 8.06836Z"/>
<path d="M77.7951 37.9912C77.5958 37.3537 77.038 36.8756 76.3607 36.7959L71.9779 36.1584L70.0255 32.1939C69.7267 31.5963 69.1091 31.2178 68.4318 31.2178C67.7544 31.2178 67.1369 31.5963 66.838 32.1939L64.8857 36.1584L60.5029 36.7959C59.8455 36.8955 59.2876 37.3537 59.0685 37.9912C58.8693 38.6287 59.0287 39.326 59.5068 39.8041L62.6744 42.892L61.9173 47.2549C61.7978 47.9123 62.0767 48.5897 62.6146 48.9881C62.9134 49.2072 63.2919 49.3268 63.6505 49.3268C63.9294 49.3268 64.2083 49.267 64.4673 49.1275L68.3919 47.0557L72.3165 49.1275C72.9142 49.4463 73.6314 49.3865 74.1693 48.9881C74.7072 48.5897 74.9861 47.9322 74.8665 47.2549L74.1095 42.892L77.2771 39.8041C77.8349 39.3459 78.0142 38.6287 77.7951 37.9912ZM71.0415 41.0193C70.6232 41.4178 70.4439 42.0154 70.5236 42.5932L70.8224 44.3463L69.2486 43.5096C68.9896 43.3701 68.7107 43.3104 68.4318 43.3104C68.1529 43.3104 67.874 43.3701 67.615 43.5096L66.0412 44.3463L66.34 42.5932C66.4396 42.0154 66.2404 41.4377 65.822 41.0193L64.547 39.7842L66.3001 39.5252C66.8779 39.4455 67.3759 39.0869 67.6349 38.549L68.4318 36.9553L69.2287 38.549C69.4876 39.067 69.9857 39.4256 70.5634 39.5252L72.3165 39.7842L71.0415 41.0193Z"/>
<path d="M60.7419 61.7976L55.4825 61.0206L53.1317 56.2394C52.8329 55.6417 52.2153 55.2632 51.538 55.2632C50.8606 55.2632 50.2431 55.6417 49.9442 56.2394L47.5934 61.0206L42.3142 61.7976C41.6567 61.8972 41.0989 62.3554 40.8798 62.9929C40.6806 63.6304 40.8399 64.3276 41.3181 64.8058L45.1431 68.5312L44.2466 73.7905C44.127 74.4479 44.406 75.1253 44.9438 75.5237C45.2427 75.7429 45.6212 75.8624 45.9798 75.8624C46.2587 75.8624 46.5376 75.8026 46.7966 75.6632L51.5181 73.1729L56.2395 75.6632C56.8372 75.9819 57.5544 75.9222 58.0923 75.5237C58.6302 75.1253 58.9091 74.4679 58.7895 73.7905L57.8931 68.5312L61.7181 64.8058C62.1962 64.3276 62.3755 63.6304 62.1563 62.9929C61.977 62.3554 61.4192 61.8972 60.7419 61.7976ZM54.7852 66.6386C54.3669 67.037 54.1876 67.6347 54.2673 68.2124L54.7255 70.862L52.3548 69.6069C51.8368 69.328 51.2192 69.328 50.7013 69.6069L48.3306 70.862L48.7888 68.2124C48.8884 67.6347 48.6892 67.0569 48.2708 66.6386L46.3583 64.7659L49.0079 64.3874C49.5856 64.3077 50.0837 63.9491 50.3427 63.4112L51.538 61.0007L52.7333 63.4112C52.9923 63.9292 53.4903 64.2878 54.0681 64.3874L56.7177 64.7659L54.7852 66.6386Z"/>
</svg>
