<svg width="102" height="102" viewBox="0 0 102 102" fill="none" xmlns="http://www.w3.org/2000/svg">
<path d="M31.7953 56.2793C29.7234 56.2793 27.7711 57.0961 26.2968 58.5504C24.8226 60.0246 24.0058 61.9969 24.0257 64.0688C24.0257 66.1605 24.8425 68.1129 26.3367 69.5871C27.8308 71.0812 29.8031 71.898 31.8949 71.898C33.9668 71.898 35.9191 71.0813 37.3933 69.627C38.8675 68.1527 39.6843 66.1805 39.6644 64.1086C39.6644 62.0168 38.8476 60.0645 37.3535 58.5902C35.8593 57.0961 33.8871 56.2793 31.7953 56.2793ZM34.8832 67.1367C34.0863 67.9336 33.0105 68.3719 31.875 68.3719C30.7195 68.3719 29.6437 67.9137 28.8269 67.0969C28.0101 66.2801 27.5519 65.2043 27.5519 64.0488C27.5519 62.9133 27.9902 61.8375 28.7871 61.0406C29.584 60.2437 30.6597 59.8055 31.7953 59.8055C32.9507 59.8055 34.0265 60.2637 34.8433 61.0805C35.6601 61.8973 36.1183 62.973 36.1183 64.1285C36.1382 65.2641 35.68 66.3398 34.8832 67.1367Z" fill="white"/>
<path d="M22.4519 68.6509C21.7546 67.9536 20.639 67.9536 19.9617 68.6509C19.2644 69.3481 19.2644 70.4638 19.9617 71.1411L24.8027 75.9821C25.1414 76.3208 25.5996 76.5001 26.0578 76.5001C26.516 76.5001 26.9542 76.3208 27.3128 75.9821C28.0101 75.2849 28.0101 74.1692 27.3128 73.4919L22.4519 68.6509Z" fill="white"/>
<path d="M68.4116 61.4989C69.1687 61.3395 69.7265 60.7419 69.8261 59.9848C69.9257 59.2278 69.5073 58.4907 68.83 58.1719L53.9483 51.1794L67.6745 37.4532C68.3519 37.9911 69.1886 38.2899 70.0652 38.2899C71.4198 38.2899 72.6749 37.6126 73.4519 36.477L78.6714 28.7672C79.7472 27.1934 79.5679 25.0817 78.273 23.7868L72.1769 17.6907C70.9019 16.4157 68.7304 16.2364 67.1964 17.2922L59.4667 22.5118C58.4507 23.209 57.7933 24.3047 57.6737 25.52C57.5741 26.536 57.873 27.5321 58.4905 28.2891L44.7644 42.0352L37.7718 27.1536C37.453 26.4563 36.7159 26.0579 35.9589 26.1575C35.2019 26.2571 34.5843 26.8149 34.4448 27.5719L30.3011 48.1313C25.3804 47.9919 20.7187 49.8446 17.2523 53.311C13.8855 56.6778 12.0327 61.1801 12.0526 65.9614C12.0726 70.7426 13.9452 75.245 17.3319 78.6317C20.7386 82.0383 25.2609 83.911 30.0819 83.911C34.8433 83.911 39.3058 82.0583 42.6726 78.7114C46.139 75.245 47.9917 70.5633 47.8523 65.6626L68.4116 61.4989ZM44.2265 64.4274C44.7444 68.8102 43.2702 73.1133 40.1823 76.2012C37.4929 78.8907 33.9069 80.3649 30.1019 80.3649C26.237 80.3649 22.5913 78.8508 19.862 76.1016C14.2241 70.4637 14.2042 61.3594 19.7823 55.7614C22.4519 53.0919 26.0378 51.6176 29.8429 51.6176C30.4007 51.6176 30.9784 51.6575 31.5362 51.7173C32.4527 51.8169 33.2894 51.2192 33.4687 50.3028L36.8554 33.4688L42.6327 45.7805C42.8718 46.2985 43.3698 46.677 43.9276 46.7766C44.4855 46.8762 45.0831 46.6969 45.4816 46.2786L62.2159 29.5442C62.5546 29.2055 62.7339 28.7672 62.7339 28.2891C62.7339 27.811 62.5546 27.3727 62.2159 27.034L61.2597 26.0778C61.1999 26.018 61.18 25.9383 61.18 25.8188C61.18 25.7391 61.2198 25.5399 61.439 25.4005L69.1487 20.1809C69.3679 20.0215 69.5273 20.0215 69.6468 20.161L75.7429 26.2571C75.8425 26.3567 75.8425 26.5758 75.723 26.7551L70.5034 34.4649C70.2444 34.8434 69.8659 34.684 69.8261 34.6442L68.8698 33.688C68.1726 32.9907 67.0569 32.9907 66.3796 33.688L49.6452 50.4223C49.2468 50.8208 49.0476 51.4184 49.1472 51.9762C49.2468 52.534 49.6253 53.0321 50.1433 53.2712L62.455 59.0485L45.621 62.4352C44.7245 62.6544 44.1069 63.511 44.2265 64.4274Z" fill="white"/>
<path d="M18.0691 24.3248L17.3719 28.4287C17.2523 29.0861 17.5312 29.7635 18.0691 30.1619C18.607 30.5604 19.3441 30.6002 19.9219 30.3014L23.6074 28.3689L27.293 30.3014C27.5519 30.4408 27.8309 30.5006 28.1098 30.5006C28.4684 30.5006 28.8469 30.3811 29.1457 30.1619C29.6836 29.7635 29.9625 29.1061 29.843 28.4287L29.1457 24.3248L32.134 21.4162C32.6121 20.9381 32.7914 20.2408 32.5723 19.6033C32.373 18.9658 31.8152 18.4877 31.1379 18.408L27.0141 17.8104L25.1613 14.065C24.8625 13.4674 24.2449 13.0889 23.5676 13.0889C22.8902 13.0889 22.2727 13.4674 21.9738 14.065L20.1211 17.8104L15.9973 18.408C15.3398 18.5076 14.782 18.9658 14.5629 19.6033C14.3637 20.2408 14.523 20.9381 15.0012 21.4162L18.0691 24.3248ZM21.6152 21.1572C22.193 21.0775 22.691 20.7189 22.95 20.1811L23.6273 18.8264L24.3047 20.1811C24.5637 20.699 25.0617 21.0576 25.6394 21.1572L27.1535 21.3764L26.0578 22.4322C25.6394 22.8307 25.4602 23.4283 25.5398 24.0061L25.7988 25.5002L24.4441 24.783C23.9262 24.5041 23.3086 24.5041 22.7906 24.783L21.4359 25.5002L21.6949 24.0061C21.7945 23.4283 21.5953 22.8506 21.1769 22.4322L20.0812 21.3764L21.6152 21.1572Z" fill="white"/>
<path d="M89.8476 51.0801C89.6483 50.4426 89.0905 49.9645 88.4132 49.8848L84.0304 49.2473L82.078 45.2828C81.7792 44.6852 81.1616 44.3066 80.4843 44.3066C79.8069 44.3066 79.1894 44.6852 78.8905 45.2828L76.9382 49.2473L72.5554 49.8848C71.8979 49.9844 71.3401 50.4426 71.121 51.0801C70.9218 51.7176 71.0811 52.4148 71.5593 52.893L74.7269 55.9809L73.9698 60.3438C73.8503 61.0012 74.1292 61.6785 74.6671 62.077C74.9659 62.2961 75.3444 62.4156 75.703 62.4156C75.9819 62.4156 76.2608 62.3559 76.5198 62.2164L80.4444 60.1445L84.369 62.2164C84.9667 62.5352 85.6839 62.4754 86.2218 62.077C86.7597 61.6785 87.0386 61.0211 86.919 60.3438L86.162 55.9809L89.3296 52.893C89.8874 52.4348 90.0667 51.7176 89.8476 51.0801ZM83.094 54.1082C82.6757 54.5066 82.4964 55.1043 82.5761 55.682L82.8749 57.4352L81.3011 56.5984C81.0421 56.459 80.7632 56.3992 80.4843 56.3992C80.2054 56.3992 79.9265 56.459 79.6675 56.5984L78.0936 57.4352L78.3925 55.682C78.4921 55.1043 78.2929 54.5266 77.8745 54.1082L76.5995 52.873L78.3526 52.6141C78.9304 52.5344 79.4284 52.1758 79.6874 51.6379L80.4843 50.0441L81.2811 51.6379C81.5401 52.1559 82.0382 52.5145 82.6159 52.6141L84.369 52.873L83.094 54.1082Z" fill="white"/>
<path d="M72.7944 74.8864L67.535 74.1095L65.1842 69.3282C64.8854 68.7306 64.2678 68.3521 63.5905 68.3521C62.9131 68.3521 62.2956 68.7306 61.9967 69.3282L59.6459 74.1095L54.3666 74.8864C53.7092 74.986 53.1514 75.4442 52.9323 76.0817C52.7331 76.7192 52.8924 77.4165 53.3705 77.8946L57.1956 81.62L56.2991 86.8794C56.1795 87.5368 56.4584 88.2142 56.9963 88.6126C57.2952 88.8317 57.6737 88.9513 58.0323 88.9513C58.3112 88.9513 58.5901 88.8915 58.8491 88.7521L63.5706 86.2618L68.292 88.7521C68.8897 89.0708 69.6069 89.011 70.1448 88.6126C70.6827 88.2142 70.9616 87.5567 70.842 86.8794L69.9456 81.62L73.7705 77.8946C74.2487 77.4165 74.428 76.7192 74.2088 76.0817C74.0295 75.4442 73.4717 74.986 72.7944 74.8864ZM66.8377 79.7274C66.4194 80.1259 66.2401 80.7235 66.3198 81.3013L66.778 83.9509L64.4073 82.6958C63.8893 82.4169 63.2717 82.4169 62.7538 82.6958L60.3831 83.9509L60.8413 81.3013C60.9409 80.7235 60.7416 80.1458 60.3233 79.7274L58.4108 77.8548L61.0604 77.4763C61.6381 77.3966 62.1362 77.038 62.3952 76.5001L63.5905 74.0895L64.7858 76.5001C65.0448 77.0181 65.5428 77.3767 66.1205 77.4763L68.7702 77.8548L66.8377 79.7274Z" fill="white"/>
</svg>
