<svg width="35" height="35" viewBox="0 0 35 35" fill="none" xmlns="http://www.w3.org/2000/svg">
<rect x="5.25" y="7" width="25.375" height="21.875" fill="#263C56"/>
<path d="M16.253 0H18.747C21.4162 0 24.4531 1.10598 27.8575 3.31794C30.4249 5.32572 32.2855 7.64544 33.4392 10.2771C34.4797 12.784 35 14.8995 35 16.6237V18.07C35 21.9494 33.4109 25.7948 30.2327 29.6062C26.5455 33.2021 22.2645 35 17.3897 35C11.3047 35 6.33382 32.1585 2.47698 26.4754C0.825659 23.4127 0 20.4011 0 17.4404C0 12.5628 2.00194 8.16723 6.00582 4.25377C9.73825 1.41792 13.154 0 16.253 0ZM8.17741 15.1604V20.5712C8.17741 23.5205 9.11052 25.4886 10.9767 26.4754C11.8137 26.9519 14.5056 27.1277 19.0524 27.0029C22.536 27.0029 24.5379 26.6229 25.0582 25.8629C26.2344 24.9214 26.8226 23.3617 26.8226 21.1838V14.2246C26.8226 11.4795 25.8556 9.68157 23.9215 8.83082L22.6321 8.40545L21.3257 8.30335H13.7761C11.0842 8.30335 9.28583 9.61919 8.381 12.2509C8.24527 13.0562 8.17741 14.0261 8.17741 15.1604ZM14.0814 9.97083H21.3257C23.9497 9.97083 25.2618 11.3547 25.2618 14.1225V21.49C24.9111 24.0536 23.8423 25.3354 22.0553 25.3354H19.0524C17.6499 25.3354 16.1682 25.3695 14.6074 25.4375C12.006 25.4375 10.4847 24.6095 10.0436 22.9533C9.9079 22.0345 9.84004 20.6506 9.84004 18.8017V16.5046C9.84004 13.0449 10.1171 11.315 10.6714 11.315C11.2256 10.4189 12.3623 9.97083 14.0814 9.97083ZM21.4275 12.7783C21.7329 13.4703 22.1175 13.8162 22.5812 13.8162C23.0449 13.8162 23.4238 13.4703 23.7179 12.7783C23.5595 11.9389 23.1411 11.5192 22.4624 11.5192C21.7725 11.7347 21.4275 12.1544 21.4275 12.7783ZM12.7412 17.7637C12.7412 19.9984 14.0192 21.5524 16.5754 22.4259H18.6452C21.1222 21.5297 22.3606 19.9417 22.3606 17.6616V17.4404C22.3606 16.1473 21.7046 14.9392 20.3926 13.8162C19.4991 13.1924 18.5717 12.8804 17.6103 12.8804H17.5085C15.3708 12.8804 13.8835 13.9864 13.0465 16.1983C12.9334 16.3458 12.8316 16.8676 12.7412 17.7637ZM17.5085 14.5309H17.6103C19.1032 14.5309 20.1042 15.3306 20.6132 16.93C20.681 17.0207 20.715 17.2646 20.715 17.6616C20.387 19.8055 19.3521 20.8775 17.6103 20.8775C16.2304 20.8775 15.2294 20.1855 14.6074 18.8017C14.5169 18.6882 14.4434 18.3422 14.3868 17.7637C14.6356 15.6085 15.6762 14.5309 17.5085 14.5309Z" fill="white"/>
</svg>
