<svg width="37" height="37" viewBox="0 0 37 37" fill="none" xmlns="http://www.w3.org/2000/svg">
<path d="M18.5 3.10547C9.99773 3.10547 3.10535 9.99785 3.10535 18.5001C3.10535 27.0024 9.99773 33.8948 18.5 33.8948C27.0023 33.8948 33.8947 27.0024 33.8947 18.5001C33.8947 9.99785 27.0023 3.10547 18.5 3.10547ZM26.439 24.377C25.7786 25.3992 25.2045 26.4586 22.4433 26.5217C19.6215 26.5243 16.703 24.1875 14.5772 21.8562C12.4549 19.7917 10.4923 17.1253 10.4947 14.5398C10.5581 11.7784 11.6177 11.2042 12.6399 10.5438C12.6399 10.5438 13.1997 10.3082 13.686 10.7323C14.1723 11.1555 16.3064 13.2898 16.3064 13.2898C16.3064 13.2898 17.0647 13.9228 16.5417 14.6234C16.1254 15.1813 15.165 16.2099 15.039 16.3451L15.3992 17.0241C15.8821 17.8184 16.8007 19.2143 18.1763 20.3456C19.1045 21.1088 20.6737 21.9454 20.6734 21.9449C20.8994 21.7343 21.8372 20.8657 22.3597 20.4752C23.0606 19.9516 23.6931 20.7103 23.6931 20.7103C23.6931 20.7103 25.8276 22.8448 26.2511 23.3314C26.6746 23.8177 26.439 24.377 26.439 24.377Z" fill="white"/>
</svg>
