<svg width="35" height="35" viewBox="0 0 35 35" fill="none" xmlns="http://www.w3.org/2000/svg">
<rect x="4.4873" y="7" width="26.0256" height="21.875" fill="#263C56"/>
<path d="M17.2022 0H17.9169C21.819 0 25.585 1.48598 29.2149 4.45795C33.0716 8.37141 35 12.4777 35 16.7769V18.4443C35 20.9399 34.0358 23.8721 32.1074 27.2411C29.7253 30.6441 26.4811 32.9922 22.3748 34.2854C20.4691 34.7618 18.8811 35 17.6106 35H17.5085C12.7556 35 8.50753 33.1397 4.76422 29.4191C1.58807 25.7892 0 21.819 0 17.5085C0 12.9031 1.79793 8.68903 5.39378 4.86631C9.13709 1.6221 13.0732 0 17.2022 0ZM18.2402 14.4968V15.3306C18.2402 15.4667 18.1664 15.5348 18.019 15.5348C15.8524 15.2398 13.9921 14.4798 12.438 13.2547L10.9917 11.9105H10.8726C10.8726 12.024 10.7365 12.3019 10.4643 12.7443V13.9864C10.555 14.6897 11.0371 15.4837 11.9105 16.3685V16.4706C11.4341 16.4706 10.952 16.3345 10.4643 16.0622V16.1643C10.4643 17.4915 11.3264 18.6315 13.0506 19.5843L12.8464 19.6864H12.3359L11.8085 19.5843V19.7885C12.6025 21.2405 13.6064 21.9665 14.8201 21.9665V22.2727C13.4589 23.1008 12.1091 23.5148 10.7705 23.5148H10.158V23.719C12.1091 24.6151 13.7992 25.0632 15.2285 25.0632C18.2231 25.0632 20.7754 23.8551 22.8853 21.439C24.4053 19.3291 25.1653 17.327 25.1653 15.4327V14.718C26.2656 13.6631 26.8214 13.0732 26.8328 12.9485V12.8464C26.4357 13.0506 25.8799 13.2264 25.1653 13.3738L25.0632 13.1526C25.7098 12.7783 26.1919 12.2622 26.5095 11.6043V11.5022H26.4074C25.3865 11.99 24.7683 12.2338 24.5527 12.2338H24.2465C23.4865 11.6099 22.7945 11.264 22.1706 11.1959H21.3369C20.1799 11.1959 19.2497 11.8482 18.5464 13.1526C18.3422 13.493 18.2402 13.941 18.2402 14.4968Z" fill="white"/>
</svg>
