<svg width="315" height="120" viewBox="0 0 315 120" fill="none" xmlns="http://www.w3.org/2000/svg">
<g clip-path="url(#clip0_53_592)">
<path d="M86.2843 116.473C84.314 116.951 82.3496 117.465 80.3734 117.908C75.2962 119.04 70.1431 119.396 64.9726 118.859C58.0242 118.142 51.4838 116.146 46.1325 111.436C40.2334 106.243 36.9748 99.8119 38.1931 91.7355C38.8285 87.5163 41.0436 84.0092 43.8883 80.9046C48.7324 75.6176 54.7715 72.1045 61.2536 69.2451C61.4284 69.1692 61.6091 69.0992 61.784 69.0233C61.8365 69 61.8831 68.9475 61.8948 68.7783C61.2244 68.9767 60.5482 69.1692 59.8779 69.3793C54.2002 71.1417 48.8315 73.5343 44.238 77.3974C40.5715 80.4845 37.7384 84.1259 36.7883 88.9694C36.3161 91.3678 36.3802 93.7488 36.9573 96.1238C37.0215 96.3923 37.0797 96.6607 37.0681 96.9408C34.9229 93.8596 34.0194 90.4166 34.1651 86.6994C34.3109 82.9062 35.9722 79.755 38.4613 76.9714C36.9282 77.911 35.6807 79.1714 34.6256 80.5953C30.4811 86.2092 30.1313 92.2957 32.5737 98.6565C34.8122 104.48 38.5371 109.155 43.6376 112.744C43.7134 112.796 43.7775 112.872 43.795 113.065C43.148 112.814 42.4951 112.58 41.8597 112.3C41.1835 112.002 40.519 111.682 39.8719 111.331C33.6813 107.993 28.7031 103.418 25.9284 96.8533C23.1595 90.2999 23.4627 83.9216 28.0736 78.1852C30.7434 74.8648 34.3283 72.729 38.164 70.9841C44.1856 68.2414 50.6152 66.87 57.0041 65.3644C63.8009 63.7655 70.6678 62.4175 77.1674 59.7623C80.9272 58.2275 84.5472 56.4243 87.421 53.4657C89.8751 50.9447 91.5073 48.0269 91.1517 44.3446C90.901 41.7595 89.6011 39.682 87.7707 37.9313C84.7221 35.0018 80.8981 33.5079 76.975 32.2416C73.1044 30.9928 69.1289 30.0299 65.4972 28.1392C64.5121 27.6256 63.5619 26.9954 62.705 26.2776C59.7671 23.8092 59.0967 19.5667 61.1603 16.2521C61.9064 15.0499 62.9032 14.0054 63.9408 12.6865C63.5095 14.0521 62.9848 15.1083 62.8624 16.2054C62.3728 20.4712 64.378 23.7216 68.8141 25.4431C73.0461 27.0888 77.4005 28.4251 81.6967 29.9074C85.8296 31.3312 89.8518 32.9594 93.4018 35.6087C100.094 40.604 101.563 49.1707 96.9226 56.1092C94.3111 60.019 90.7903 62.7909 86.5816 64.7634C80.5425 67.5878 74.5092 70.4181 68.476 73.2483C63.5969 75.5359 58.7761 77.9518 54.3168 80.9921C50.6444 83.4956 47.7647 86.7344 46.016 90.8718C44.0515 95.5169 44.7277 99.882 47.4441 104.037C49.6651 107.433 52.7429 109.855 56.2637 111.74C65.6197 116.747 75.5702 117.896 85.9404 116.239C86.0336 116.227 86.1269 116.239 86.2202 116.239C86.2377 116.321 86.2551 116.397 86.2726 116.478L86.2843 116.473Z" fill="#DBDBDB"/>
<path d="M23.6492 98.0143C19.1782 92.7623 16.4443 86.845 17.033 79.8072C17.5168 74.0417 20.4839 69.6416 25.124 66.3153C28.7206 63.7302 32.7778 62.2071 37.0331 61.1275C41.8072 59.9195 46.6921 59.4702 51.5712 59.0033C58.7703 58.3147 65.8936 57.276 72.7197 54.7492C76.2172 53.4537 79.639 52.0006 82.5069 49.5263C83.1598 48.9661 83.7544 48.3184 84.279 47.6356C86.2959 45.0037 86.2785 42.0276 84.0867 39.5358C81.411 36.4896 77.896 34.8498 73.9963 33.9511C71.5655 33.3909 69.0822 32.9649 66.7214 32.2005C63.0198 30.9925 61.0379 27.958 59.2833 24.7717C59.3474 24.7134 59.4115 24.655 59.4698 24.5967C59.7088 24.9235 59.9362 25.2678 60.1926 25.5829C60.4724 25.933 60.7756 26.2657 61.0845 26.5925C63.288 28.9209 66.016 30.2864 69.0997 31.1092C72.6264 32.0487 76.1531 33.0291 79.604 34.2079C82.4428 35.1766 85.0776 36.6005 86.908 39.139C89.2397 42.3719 89.1931 45.6982 87.2403 49.0595C85.4565 52.129 82.6585 54.1189 79.7147 55.9338C74.0429 59.4293 67.8814 61.4951 61.2885 62.4989C54.8647 63.4792 48.4584 64.6347 42.2619 66.7063C38.7586 67.8793 35.3601 69.2973 32.2939 71.3981C32.1424 71.5032 31.985 71.5907 31.8276 71.6841C31.7751 71.6024 31.7168 71.5265 31.6644 71.4448C33.6755 69.9918 35.6866 68.5387 37.6335 67.1382C31.0057 68.9705 25.398 72.3727 22.2735 78.8794C19.114 85.4619 20.3848 91.8402 23.655 98.026L23.6492 98.0143Z" fill="#DBDBDB"/>
<path d="M74.3345 6.97901C73.5534 7.64427 72.7665 8.30952 71.9795 8.97478L67.3569 11.3732C68.1497 10.8247 68.8726 10.1594 69.6362 9.55834C70.2541 9.07399 70.5863 8.36204 70.2716 7.69679C69.9801 7.08405 69.368 6.5997 68.8317 6.13868C68.7385 6.05699 68.2663 6.29041 68.0681 6.47715C65.1593 9.1907 62.2797 11.9393 59.3534 14.6353C51.1983 22.1749 42.9033 29.5511 34.1478 36.3904C27.1236 41.8759 19.9536 47.1862 12.8245 52.5375C10.9591 53.938 8.98886 55.2102 7.05938 56.5407C7.63065 57.7603 8.17276 58.91 8.73237 60.1063C25.2699 47.1045 41.1312 33.1283 57.4239 19.6656C57.4822 19.7356 57.5405 19.7998 57.5988 19.8698C55.168 22.0815 52.8014 24.3691 50.2948 26.4991C42.1572 33.4201 33.9963 40.3178 25.7945 47.1629C19.1434 52.7126 12.4223 58.1747 5.72449 63.6718C5.18237 64.1211 4.62859 64.5938 4.00486 64.8914C3.51521 65.1249 2.9148 65.154 2.35519 65.1832C2.16866 65.1949 1.88885 64.9615 1.80724 64.7747C1.74895 64.6522 1.92383 64.3662 2.06373 64.2203C3.58516 62.6389 3.62013 62.3471 2.24444 60.6431C1.56242 59.797 0.810445 59.0092 0.0118408 58.1046C0.967835 57.4627 1.85971 56.8617 2.75741 56.2548C11.3555 50.4192 19.8196 44.391 28.0271 38.001C37.3481 30.7415 46.3309 23.0794 55.0165 15.0788C60.1112 10.387 65.0661 5.53178 70.0559 0.723253C70.7146 0.0930088 71.4258 -0.0703877 72.2477 0.0288174C73.1395 0.139694 73.3611 0.729089 72.7956 1.42352C72.5741 1.6978 72.3351 1.95456 71.9679 2.38056C72.6033 2.75988 73.1629 3.1567 73.7749 3.4368C75.5295 4.23628 75.821 5.73603 74.3579 6.97901H74.3345Z" fill="#DBDBDB"/>
<path d="M103.62 48.5982C103.049 51.4576 101.563 53.8735 99.6857 55.8401C100.204 54.1303 100.986 52.3213 101.295 50.4305C102.501 43.0835 99.5749 37.5514 93.4775 33.5598C89.6594 31.0564 85.3691 29.6266 81.0263 28.3311C77.4063 27.2516 73.7806 26.1836 70.2364 24.894C68.8665 24.3921 67.654 23.3592 66.4765 22.4372C63.7485 20.3014 62.9965 14.0689 66.8904 11.6705C66.937 11.6413 66.9895 11.6122 67.0303 11.5771C67.0303 11.5771 64.856 14.2382 65.1824 17.121C65.1824 17.156 65.1941 17.1968 65.1941 17.2318C65.2058 17.3252 65.2174 17.4244 65.2407 17.5178C65.2757 17.6987 65.3224 17.8796 65.3806 18.0605C65.3806 18.0663 65.3806 18.078 65.3865 18.0897C65.4273 18.2122 65.4681 18.3289 65.5205 18.4515C65.5497 18.5215 65.5788 18.5857 65.608 18.6557C65.6313 18.7082 65.6546 18.7549 65.6779 18.8016C65.9111 19.2743 66.22 19.747 66.6164 20.2022C68.4993 22.4138 71.0058 23.616 73.7572 24.3046C77.2373 25.1799 80.7523 25.9035 84.2207 26.8256C89.3679 28.1969 94.3228 30.0585 98.3333 33.7349C102.699 37.7323 104.81 42.6108 103.609 48.5865L103.62 48.5982Z" fill="#DBDBDB"/>
<path d="M76.0831 39.9673C70.8427 36.8511 60.8805 37.6098 58.234 47.1159C57.8143 48.6274 57.5345 50.1738 57.0857 51.6794C56.87 52.3972 56.4969 53.1149 56.0306 53.7043C55.5234 54.3404 55.436 54.9298 55.6867 55.6593C55.8324 56.0736 55.8907 56.5171 56.0189 57.089C54.9289 57.159 53.9554 57.2232 53.0985 57.2757C52.5097 56.272 51.9793 55.3616 51.3497 54.2879C51.4779 54.2004 51.7344 53.9086 52.055 53.821C54.1652 53.2141 55.2786 51.7961 55.7391 49.6894C56.1413 47.8512 56.5319 45.9722 57.2372 44.239C59.6622 38.2867 66.0102 35.6373 71.6995 36.3785C73.1161 36.5652 74.5209 36.9678 75.8966 37.3822C76.7593 37.6389 77.4588 37.8082 77.7853 36.6527C80.251 37.7673 82.5536 38.9228 83.2414 41.7939C83.2997 42.0273 83.1948 42.3308 83.0782 42.5583C81.8016 45.0735 80.5133 47.5828 79.2076 50.0804C79.0677 50.3547 78.8462 50.629 78.5955 50.7924C75.4186 52.7998 71.9968 54.2004 68.2545 54.7372C68.167 54.7489 68.0796 54.7139 67.8931 54.6847C69.2746 52.1696 70.6211 49.7011 71.991 47.2385C73.3434 44.8109 74.7133 42.3949 76.0773 39.9732L76.0831 39.9673Z" fill="#DBDBDB"/>
<path d="M92.6206 11.799C92.2359 11.0637 91.9037 10.521 91.6647 9.94326C91.3324 9.12628 91.4257 8.43184 92.3933 8.08754C92.5449 8.03502 92.7489 7.84829 92.7547 7.71407C92.813 6.80371 93.4601 6.74536 94.1537 6.57613C94.7716 6.4244 95.4362 6.14429 95.8967 5.71829C96.5321 5.13473 97.0975 5.07054 97.797 5.4732C98.1001 5.64827 98.3974 5.84084 98.7064 6.01591C99.6041 6.52361 99.8722 7.2764 99.4875 8.21593C99.2252 8.85201 99.2427 9.32469 99.8197 9.79737C100.741 10.5502 99.913 11.4839 99.9014 12.3184C99.9014 12.5459 99.1202 12.7619 98.7005 12.9894C98.4907 13.1003 98.2225 13.182 98.1001 13.3571C97.6513 14.0107 97.2549 14.7051 96.8294 15.3937C97.5114 15.8197 98.0885 15.9889 98.8638 15.4754C99.6449 14.9619 100.414 15.4754 101.026 16.0298C101.574 16.5258 101.895 17.1502 101.603 17.9264C101.3 18.7433 100.624 19.0293 99.8489 19.0118C98.8638 18.9826 98.036 18.72 97.5405 17.6462C97.3307 17.1969 96.5146 17.0277 95.9083 16.695C95.2729 17.6346 94.7017 18.4691 94.078 19.3853C95.0281 19.712 95.6927 20.4298 96.7128 19.6245C97.4822 19.0176 99.027 19.928 99.4525 21.0717C99.8023 22.0171 99.3184 22.8516 98.2342 23.1901C96.8294 23.6277 95.8734 23.155 95.4128 21.8245C95.3546 21.6611 95.1447 21.5036 94.9698 21.4335C94.4685 21.2235 93.9497 21.0601 93.3202 20.8383C92.3175 22.9975 91.3266 25.1333 90.3239 27.2925C88.3245 26.563 86.4358 25.8803 84.4131 25.145C85.3574 23.3418 86.2784 21.5969 87.2169 19.8113C86.5116 19.4961 85.952 19.1285 85.1301 19.572C84.2848 20.033 82.6235 19.0993 82.3029 18.1306C81.9881 17.1852 82.4894 16.2165 83.4571 15.9072C84.7337 15.4929 86.0628 16.0823 86.2784 17.2844C86.4591 18.3173 87.3802 17.9555 87.9573 18.4691C88.5926 17.4478 89.1931 16.4908 89.8401 15.4637C88.9832 15.1311 88.3245 14.6643 87.3627 15.1428C86.465 15.5921 85.1301 14.781 84.8153 13.8123C84.5238 12.9136 85.0776 12.0674 86.1735 11.729C87.3627 11.3613 88.5227 11.8282 88.7092 12.8902C88.8783 13.8589 89.7002 13.7831 90.2773 14.034C90.4755 14.1215 90.9593 13.7422 91.21 13.4796C91.7404 12.9311 92.2009 12.3125 92.6206 11.8165V11.799Z" fill="#DBDBDB"/>
<path d="M53.6348 82.7656C56.8233 84.3996 59.9245 85.9869 63.1889 87.6559C62.1804 88.7588 62.0172 90.3402 60.6123 91.058C60.5133 91.1047 60.4666 91.2506 60.3967 91.3498C59.633 92.4702 58.9452 93.6432 58.0883 94.6877C57.1614 95.8257 56.0073 96.7827 55.0921 97.9265C53.5998 99.7939 52.7837 101.976 52.4922 104.346C52.3873 105.209 51.8918 105.484 51.2797 105.005C50.1664 104.13 49.1579 103.109 48.1261 102.122C47.2459 101.282 47.1643 100.436 47.7647 99.2629C49.9915 94.9387 51.2856 90.276 52.4689 85.5842C52.6263 84.9656 52.8187 84.3529 53.0518 83.7577C53.1859 83.4075 53.4307 83.0924 53.6289 82.7656H53.6348Z" fill="#DBDBDB"/>
<path d="M74.4743 103.476C74.2819 101.265 74.1187 99.1931 73.9263 97.1214C73.6757 94.5071 73.3959 91.8927 73.151 89.2784C73.1277 89.0567 73.3201 88.8115 73.4133 88.5781C73.6174 88.6657 73.868 88.7124 74.0254 88.8582C75.4361 90.1421 76.7652 91.4434 78.5256 92.3771C83.2473 94.8747 84.0342 100.798 80.2102 104.556C81.1371 102.158 81.7317 99.8292 80.2743 97.5708C79.161 95.8493 77.4413 95.0673 75.3195 94.8689C75.4769 96.6663 75.6168 98.4169 75.78 100.168C75.9549 102.047 76.1822 103.926 76.3221 105.811C76.5436 108.705 74.9056 110.812 72.0318 111.331C71.2857 111.465 70.4929 111.5 69.7468 111.407C66.9779 111.063 65.7945 108.612 67.3218 106.254C68.6858 104.142 70.7669 103.284 73.2559 103.389C73.6057 103.406 73.9496 103.441 74.4801 103.482L74.4743 103.476Z" fill="#DBDBDB"/>
<path d="M80.8573 87.9187C81.2187 89.3367 79.5282 91.1691 77.4355 91.5309C77.7095 90.3754 77.0158 89.7335 76.2988 88.9807C73.2443 85.7945 72.5914 81.9255 73.6931 77.8056C74.8706 73.4114 77.5462 70.1785 81.8949 68.5211C82.6293 68.241 83.4221 68.1127 84.2907 67.8851C84.7628 66.3036 86.43 66.3153 87.7882 65.8018C87.6775 65.9827 87.59 66.1986 87.4501 66.3503C86.4883 67.3482 86.1852 68.5445 86.3542 69.8925C86.395 70.2368 86.395 70.6045 86.3367 70.9488C86.1968 71.7832 85.4857 72.0633 84.8794 71.4681C83.9642 70.5636 82.9499 70.5869 81.8482 70.9312C80.3093 71.4098 79.1668 72.4252 78.2691 73.7148C76.1356 76.7843 75.3136 80.1398 76.0948 83.8396C76.1472 84.0905 76.223 84.3356 76.3046 84.5807C77.1207 87.0375 78.2458 87.8603 80.8631 87.9245L80.8573 87.9187Z" fill="#DBDBDB"/>
<path d="M65.2116 108.407C65.1708 110.018 64.8794 110.467 63.3579 110.724C59.2716 111.418 55.6867 110.339 52.6671 107.467C52.4165 107.228 52.2124 106.931 52.0259 106.633C51.6703 106.049 51.6878 106.02 52.2707 105.472C55.9956 108.961 60.4083 109.399 65.2116 108.401V108.407Z" fill="#DBDBDB"/>
<path d="M124.227 27.0137C124.885 27.0137 125.637 27.0312 126.5 27.0662C127.357 27.1012 128.243 27.2121 129.152 27.393C130.062 27.5739 130.948 27.8773 131.805 28.2975C132.662 28.7177 133.437 29.2954 134.131 30.0248C134.824 30.7543 135.378 31.6938 135.798 32.8434C136.217 33.993 136.427 35.4111 136.427 37.0917V40.5406C136.427 41.7077 136.282 42.7523 135.99 43.6626C135.699 44.573 135.326 45.3608 134.871 46.0202C134.416 46.6796 133.915 47.2165 133.367 47.6367C132.819 48.0568 132.271 48.3603 131.723 48.5412L137.471 65.3594H130.901L125.865 49.9125H123.294V65.3594H116.999V27.0137H124.221H124.227ZM123.294 44.1645H126.139C126.722 44.1645 127.258 44.0711 127.753 43.8902C128.243 43.7093 128.663 43.4234 129.013 43.0382C129.356 42.6531 129.63 42.1862 129.834 41.6435C130.033 41.095 130.138 40.4589 130.138 39.7236V36.8175C130.138 35.9071 130.004 35.1835 129.73 34.6525C129.456 34.1214 129.1 33.7188 128.663 33.4445C128.226 33.1702 127.759 32.9893 127.27 32.8959C126.78 32.8026 126.314 32.7617 125.876 32.7617H123.306V44.1586L123.294 44.1645Z" fill="#DBDBDB"/>
<path d="M148.418 27.0137V65.3652H142.122V27.0137H148.418Z" fill="#DBDBDB"/>
<path d="M165.871 65.3652H160.345L152.3 27.0137H159.196L162.974 51.8325H163.248L167.351 27.0137H173.973L165.871 65.3652Z" fill="#DBDBDB"/>
<path d="M177.856 27.0137H193.892V33.0944H184.151V43.1199H192.633V48.8738H184.151V59.2845H194.055V65.3652H177.856V27.0137Z" fill="#DBDBDB"/>
<path d="M206.751 27.0137C207.41 27.0137 208.162 27.0312 209.025 27.0662C209.881 27.1012 210.768 27.2121 211.677 27.393C212.586 27.5739 213.472 27.8773 214.329 28.2975C215.186 28.7177 215.961 29.2954 216.655 30.0248C217.349 30.7543 217.902 31.6938 218.322 32.8434C218.742 33.993 218.952 35.4111 218.952 37.0917V40.5406C218.952 41.7077 218.806 42.7523 218.515 43.6626C218.223 44.573 217.85 45.3608 217.395 46.0202C216.941 46.6796 216.439 47.2165 215.891 47.6367C215.343 48.0568 214.796 48.3603 214.248 48.5412L219.995 65.3594H213.426L208.389 49.9125H205.818V65.3594H199.523V27.0137H206.745H206.751ZM205.818 44.1645H208.663C209.246 44.1645 209.782 44.0711 210.278 43.8902C210.768 43.7093 211.187 43.4234 211.537 43.0382C211.881 42.6531 212.155 42.1862 212.359 41.6435C212.557 41.095 212.662 40.4589 212.662 39.7236V36.8175C212.662 35.9071 212.528 35.1835 212.254 34.6525C211.98 34.1214 211.624 33.7188 211.187 33.4445C210.75 33.1702 210.284 32.9893 209.794 32.8959C209.304 32.8026 208.838 32.7617 208.401 32.7617H205.83V44.1586L205.818 44.1645Z" fill="#DBDBDB"/>
<path d="M250.097 36.4379C250.097 36.1461 250.068 35.7143 250.016 35.1482C249.963 34.5822 249.73 34.0628 249.334 33.5843C249.112 33.2925 248.821 33.0649 248.459 32.9015C248.092 32.7381 247.62 32.6564 247.037 32.6564C246.489 32.6564 246.034 32.7381 245.667 32.9015C245.3 33.0649 245.008 33.2925 244.793 33.5843C244.391 34.057 244.134 34.6347 244.029 35.3116C243.918 35.9885 243.866 36.6363 243.866 37.2549V54.9484C243.866 55.8646 243.93 56.6407 244.058 57.2768C244.186 57.9187 244.414 58.4381 244.74 58.8407C244.997 59.1325 245.288 59.3542 245.615 59.5001C245.941 59.646 246.361 59.7219 246.874 59.7219C247.311 59.7219 247.766 59.6577 248.244 59.5293C248.716 59.4009 249.101 59.1033 249.392 58.6248C249.613 58.298 249.783 57.8953 249.911 57.4168C250.039 56.9441 250.103 56.3372 250.103 55.6078V54.3473H256.34V56.0455C256.34 57.6503 256.113 59.0975 255.658 60.3755C255.204 61.6535 254.498 62.7331 253.554 63.6084C252.75 64.3378 251.782 64.9039 250.651 65.3066C249.52 65.7092 248.191 65.9076 246.658 65.9076C245.416 65.9076 244.321 65.7501 243.376 65.4408C242.426 65.1315 241.604 64.723 240.916 64.2095C240.293 63.7368 239.774 63.2057 239.354 62.6222C238.934 62.0386 238.59 61.4376 238.316 60.8131C238.042 60.1946 237.85 59.5818 237.739 58.9749C237.629 58.368 237.576 57.7961 237.576 57.2476V35.9477C237.576 35.2532 237.64 34.588 237.769 33.9461C237.897 33.31 238.077 32.6973 238.316 32.1079C238.555 31.5243 238.853 30.9641 239.22 30.4389C239.581 29.9078 239.984 29.4235 240.427 28.9858C241.266 28.1805 242.222 27.5619 243.3 27.1243C244.373 26.6866 245.574 26.4648 246.885 26.4648C247.981 26.4648 249.083 26.6574 250.196 27.0426C251.31 27.4277 252.301 27.9996 253.181 28.7699C254.09 29.5344 254.825 30.4797 255.373 31.5885C255.921 32.7031 256.195 34.0278 256.195 35.5625V38.2994H250.121V36.4379H250.097Z" fill="#DBDBDB"/>
<path d="M267.83 27.0137V65.3652H261.534V27.0137H267.83Z" fill="#DBDBDB"/>
<path d="M291.636 27.0137V33.0944H285.067V65.3652H278.771V33.1002H272.202V27.0195H291.631L291.636 27.0137Z" fill="#DBDBDB"/>
<path d="M306.956 49.4224V65.3652H300.66V49.259L292.563 27.0137H299.459L303.726 41.5852H304.163L308.32 27.0137H314.994L306.95 49.4224H306.956Z" fill="#DBDBDB"/>
<path d="M136.165 72.6122C135.909 73.2833 135.57 74.252 135.145 75.5242C134.719 76.7963 134.305 78.4478 133.892 80.4786H133.122C133.198 80.1168 133.256 79.7491 133.297 79.3582C133.338 78.973 133.355 78.6112 133.355 78.2786C133.355 77.3274 133.169 76.4637 132.796 75.6759C132.423 74.8939 131.84 74.2637 131.047 73.7852C130.248 73.3125 129.199 73.0732 127.887 73.0732C126.349 73.0732 125.066 73.47 124.04 74.2695C123.014 75.069 122.501 76.3003 122.501 77.9693C122.501 78.9438 122.74 79.8542 123.212 80.6887C123.685 81.5232 124.291 82.3226 125.02 83.0754C125.748 83.8341 126.535 84.5927 127.369 85.3513C128.202 86.1099 128.983 86.8861 129.718 87.6855C130.447 88.485 131.053 89.3253 131.525 90.2124C131.997 91.0994 132.236 92.0798 132.236 93.1593C132.236 94.4957 131.939 95.6395 131.35 96.5907C130.761 97.5419 129.992 98.318 129.042 98.9249C128.092 99.526 127.048 99.9811 125.906 100.273C124.763 100.571 123.626 100.716 122.501 100.716C121.475 100.716 120.613 100.617 119.925 100.425C119.237 100.232 118.654 99.9928 118.193 99.7127C117.733 99.4326 117.348 99.1758 117.039 98.9424C116.754 98.709 116.491 98.5573 116.252 98.4814C116.008 98.4055 115.809 98.3647 115.658 98.3647C115.326 98.3647 115.046 98.5398 114.83 98.8841C114.609 99.2284 114.364 99.7536 114.078 100.442H113.309C113.542 99.8761 113.787 99.2225 114.037 98.4756C114.294 97.7286 114.574 96.7716 114.882 95.6045C115.191 94.4373 115.535 92.9668 115.92 91.1927H116.69C116.585 91.7296 116.497 92.2548 116.421 92.7508C116.346 93.2469 116.316 93.7721 116.346 94.3089C116.421 96.0538 116.964 97.431 117.96 98.4347C118.957 99.4384 120.514 99.9403 122.618 99.9403C124.285 99.9403 125.643 99.5551 126.698 98.7848C127.748 98.0145 128.278 96.7949 128.278 95.1259C128.278 94.0463 128.068 93.0835 127.643 92.2373C127.217 91.3911 126.669 90.5975 125.987 89.8681C125.305 89.1386 124.588 88.4208 123.83 87.7264C123.073 87.032 122.356 86.3084 121.674 85.5497C120.992 84.7911 120.444 83.9508 120.018 83.0229C119.593 82.1009 119.383 81.0446 119.383 79.8659C119.383 78.6871 119.627 77.5491 120.111 76.6096C120.601 75.6701 121.248 74.8881 122.052 74.2578C122.863 73.6276 123.766 73.1549 124.769 72.834C125.771 72.513 126.797 72.3496 127.847 72.3496C128.896 72.3496 129.846 72.478 130.616 72.7348C131.385 72.9915 132.131 73.4058 132.848 73.9661C133.157 74.1995 133.414 74.3687 133.618 74.4854C133.822 74.6021 133.991 74.6605 134.119 74.6605C134.48 74.6605 134.9 73.9777 135.39 72.618H136.159L136.165 72.6122Z" fill="#DBDBDB"/>
<path d="M139.593 96.888C139.359 97.7342 139.418 98.3469 139.767 98.7204C140.111 99.0939 140.572 99.2806 141.132 99.2806C141.691 99.2806 142.268 99.0355 142.845 98.5512C143.422 98.061 143.994 97.0222 144.559 95.4291L145.095 93.9235H145.824L145.014 96.3511C144.448 98.0201 143.726 99.1639 142.839 99.7825C141.953 100.401 140.922 100.704 139.738 100.704C138.683 100.704 137.885 100.477 137.331 100.028C136.777 99.5782 136.451 98.9421 136.352 98.1193C136.247 97.2965 136.352 96.3628 136.66 95.3066L142.63 74.4968C143.248 74.4735 143.854 74.421 144.46 74.3451C145.06 74.2692 145.608 74.1409 146.098 73.96L139.593 96.888ZM149.368 80.3558L149.252 81.1261H137.278L137.471 80.3558H149.362H149.368Z" fill="#DBDBDB"/>
<path d="M152.137 100.162H148.785L153.402 83.63C153.659 82.7546 153.74 82.1419 153.653 81.7801C153.559 81.4183 153.297 81.2432 152.866 81.2432C152.3 81.2432 151.787 81.5408 151.327 82.1302C150.866 82.7196 150.377 83.735 149.864 85.1764L149.362 86.6003H148.634L149.596 83.7875C149.98 82.708 150.435 81.8851 150.96 81.3191C151.484 80.753 152.038 80.362 152.615 80.1461C153.192 79.9302 153.74 79.8193 154.253 79.8193C155.023 79.8193 155.571 79.9886 155.891 80.3212C156.212 80.6538 156.392 81.0915 156.427 81.6342C156.468 82.1711 156.427 82.7605 156.311 83.3849C156.194 84.0151 156.06 84.622 155.909 85.2173L152.137 100.168V100.162ZM162.029 80.7822C161.441 80.7822 160.828 81.0565 160.199 81.6109C159.569 82.1652 158.928 82.9589 158.275 83.9976C157.622 85.0364 156.964 86.2852 156.311 87.7382C155.658 89.1913 155.017 90.8019 154.387 92.5759C153.758 94.35 153.151 96.264 152.557 98.3182L153.519 93.3871C154.364 90.872 155.157 88.7478 155.885 87.0263C156.614 85.3048 157.343 83.9101 158.06 82.848C158.777 81.7801 159.517 81.0098 160.275 80.5371C161.033 80.0644 161.831 79.8252 162.682 79.8252C163.399 79.8252 163.959 80.0294 164.355 80.4437C164.752 80.8581 164.95 81.3833 164.95 82.0252C164.95 82.5387 164.822 83.0056 164.565 83.4316C164.309 83.8576 163.982 84.1902 163.586 84.4353C163.189 84.6804 162.746 84.8029 162.257 84.8029C161.819 84.8029 161.452 84.6804 161.161 84.4353C160.863 84.1902 160.718 83.8517 160.718 83.4141C160.718 83.0056 160.793 82.6379 160.951 82.317C161.102 81.996 161.312 81.7217 161.569 81.4883C161.825 81.2549 162.123 81.0798 162.455 80.9514C162.402 80.8989 162.344 80.8639 162.28 80.8347C162.216 80.8114 162.134 80.7939 162.029 80.7939V80.7822Z" fill="#DBDBDB"/>
<path d="M169.578 83.6297C170.114 82.0366 169.94 81.2429 169.042 81.2429C168.453 81.2429 167.923 81.5639 167.462 82.2058C167.002 82.8477 166.512 83.8398 165.999 85.1703L165.463 86.5942H164.734L165.737 83.7814C166.121 82.7018 166.582 81.879 167.124 81.3129C167.66 80.7469 168.232 80.3559 168.838 80.14C169.438 79.9241 169.998 79.8132 170.511 79.8132C171.333 79.8132 171.933 79.9824 172.318 80.3151C172.703 80.6477 172.936 81.0854 173.012 81.6281C173.087 82.1649 173.064 82.7543 172.936 83.3788C172.808 84.009 172.639 84.6159 172.434 85.2111L168.313 96.8882C168.057 97.6351 167.975 98.2187 168.063 98.6388C168.15 99.0648 168.441 99.2749 168.931 99.2749C169.444 99.2749 169.934 98.9948 170.394 98.4287C170.855 97.8627 171.368 96.8356 171.933 95.3476L172.469 93.9237H173.198L172.195 96.7364C171.834 97.7402 171.397 98.528 170.884 99.1057C170.371 99.6834 169.817 100.098 169.228 100.337C168.64 100.582 168.045 100.705 167.456 100.705C166.355 100.705 165.608 100.448 165.224 99.9343C164.839 99.4208 164.699 98.7555 164.798 97.9327C164.903 97.1099 165.119 96.2346 165.451 95.3125L169.572 83.6355L169.578 83.6297ZM170.773 73.3415C170.901 72.6763 171.239 72.0985 171.793 71.6084C172.347 71.1182 172.942 70.8789 173.583 70.8789C174.224 70.8789 174.772 71.124 175.139 71.6084C175.512 72.0985 175.635 72.6763 175.506 73.3415C175.378 74.0126 175.04 74.5903 174.486 75.0747C173.933 75.5649 173.326 75.8041 172.656 75.8041C171.986 75.8041 171.508 75.5591 171.135 75.0747C170.761 74.5845 170.639 74.0068 170.767 73.3415H170.773Z" fill="#DBDBDB"/>
<path d="M179.43 100.162H176.084L180.7 83.63C180.805 83.3207 180.887 82.9822 180.951 82.6087C181.015 82.2353 180.998 81.9143 180.893 81.6459C180.788 81.3774 180.531 81.2432 180.123 81.2432C179.558 81.2432 179.056 81.5175 178.619 82.0719C178.182 82.6263 177.698 83.6592 177.156 85.1764L176.655 86.6003H175.926L176.888 83.7875C177.453 82.1711 178.153 81.1032 178.987 80.5896C179.82 80.0761 180.648 79.8193 181.47 79.8193C182.239 79.8193 182.799 79.9886 183.143 80.3212C183.487 80.6538 183.679 81.0857 183.72 81.6109C183.761 82.1361 183.72 82.7138 183.603 83.344C183.487 83.9743 183.353 84.5987 183.201 85.2114L179.43 100.162ZM181.202 92.15C182.099 89.8391 182.974 87.8958 183.819 86.3319C184.664 84.7621 185.498 83.5016 186.32 82.5387C187.142 81.5759 187.981 80.8814 188.844 80.4554C189.701 80.0294 190.593 79.8193 191.519 79.8193C192.726 79.8193 193.554 80.1111 194.003 80.6888C194.451 81.2666 194.65 82.0018 194.597 82.883C194.545 83.77 194.364 84.6862 194.061 85.6374L190.324 96.8885C190.091 97.5829 189.998 98.1548 190.033 98.6041C190.074 99.0535 190.371 99.281 190.936 99.281C191.42 99.281 191.904 99.0126 192.382 98.4699C192.854 97.933 193.361 96.8885 193.904 95.3479L194.405 93.924H195.134L194.172 96.7367C193.81 97.8163 193.367 98.6391 192.843 99.2052C192.318 99.7712 191.764 100.162 191.187 100.378C190.61 100.594 190.05 100.705 189.514 100.705C188.896 100.705 188.389 100.6 187.993 100.396C187.596 100.191 187.293 99.923 187.089 99.5845C186.804 99.1235 186.716 98.5166 186.821 97.7755C186.926 97.0285 187.13 96.2115 187.439 95.307L191.094 84.2836C191.222 83.9218 191.333 83.4958 191.42 82.9939C191.508 82.492 191.49 82.0427 191.362 81.6459C191.234 81.2491 190.861 81.0506 190.243 81.0506C189.625 81.0506 188.972 81.3191 188.278 81.8618C187.585 82.4045 186.868 83.1631 186.122 84.1552C185.375 85.1472 184.647 86.326 183.93 87.7032C183.213 89.0804 182.525 90.5918 181.872 92.2492C181.219 93.9065 180.619 95.6746 180.082 97.5479L181.202 92.1558V92.15Z" fill="#DBDBDB"/>
<path d="M204.991 91.4899L205.953 91.5308C205.032 92.0443 204.175 92.5112 203.394 92.9372C202.612 93.3632 201.977 93.7541 201.487 94.1101C200.998 94.4719 200.759 94.8162 200.759 95.1489C200.759 95.4056 200.939 95.6449 201.295 95.8608C201.656 96.0767 202.245 96.2926 203.067 96.4969L205.877 97.2263C206.699 97.4306 207.433 97.6698 208.092 97.9383C208.745 98.2067 209.264 98.551 209.648 98.9595C210.033 99.368 210.225 99.9107 210.225 100.576C210.225 101.241 210.016 101.941 209.59 102.753C209.164 103.564 208.512 104.34 207.626 105.081C206.74 105.828 205.591 106.441 204.18 106.931C202.77 107.421 201.062 107.66 199.062 107.66C197.728 107.66 196.608 107.538 195.693 107.293C194.784 107.048 194.102 106.709 193.653 106.271C193.204 105.834 192.977 105.332 192.977 104.766C192.977 104.352 193.093 103.926 193.321 103.476C193.554 103.027 193.892 102.589 194.341 102.163C194.79 101.737 195.355 101.34 196.037 100.967C196.719 100.593 197.518 100.278 198.445 100.022L198.713 100.599C197.762 101.089 197.11 101.638 196.748 102.257C196.387 102.875 196.212 103.488 196.212 104.106C196.212 105.134 196.573 105.875 197.29 106.324C198.007 106.773 198.893 107.001 199.948 107.001C200.794 107.001 201.668 106.867 202.566 106.598C203.463 106.33 204.297 105.968 205.067 105.519C205.836 105.069 206.454 104.55 206.914 103.961C207.375 103.371 207.608 102.753 207.608 102.111C207.608 101.726 207.486 101.469 207.241 101.34C206.996 101.212 206.594 101.084 206.028 100.955L200.141 99.4497C199.523 99.298 199.022 99.0295 198.637 98.6619C198.252 98.2884 198.06 97.7807 198.06 97.1388C198.06 96.6253 198.24 96.1001 198.596 95.5573C198.957 95.0205 199.634 94.4194 200.636 93.7658C201.639 93.1122 203.085 92.3478 204.985 91.4724L204.991 91.4899ZM207.107 79.8129C208.622 79.8129 209.846 80.1514 210.785 80.8341C211.724 81.5169 212.19 82.614 212.19 84.1312C212.19 85.3626 211.846 86.5822 211.152 87.7902C210.459 88.9981 209.485 89.996 208.226 90.778C206.967 91.56 205.48 91.951 203.761 91.951C202.35 91.951 201.161 91.6125 200.199 90.9297C199.237 90.247 198.753 89.1907 198.753 87.7493C198.753 87.0549 198.899 86.2554 199.196 85.3392C199.494 84.4289 199.96 83.5535 200.601 82.719C201.243 81.8845 202.094 81.1901 203.16 80.6357C204.227 80.0813 205.539 79.8071 207.107 79.8071V79.8129ZM206.955 80.5074C206.133 80.5074 205.44 80.7466 204.874 81.2193C204.309 81.692 203.842 82.2989 203.469 83.0283C203.096 83.7578 202.816 84.5222 202.624 85.3217C202.432 86.1154 202.298 86.8448 202.222 87.4984C202.146 88.152 202.105 88.6363 202.105 88.9456C202.105 89.7684 202.292 90.3578 202.665 90.7196C203.038 91.0814 203.533 91.2565 204.145 91.2565C205.119 91.2565 205.912 90.9589 206.512 90.3695C207.113 89.7801 207.585 89.0448 207.917 88.1753C208.249 87.3 208.477 86.4305 208.593 85.5551C208.71 84.6798 208.768 83.9504 208.768 83.361C208.768 82.4856 208.651 81.797 208.424 81.2776C208.191 80.7641 207.707 80.5074 206.961 80.5074H206.955ZM209.841 81.8204L209.147 81.5519C209.508 80.6766 210.12 79.9063 210.995 79.241C211.869 78.5758 212.779 78.2373 213.729 78.2373C214.393 78.2373 214.935 78.424 215.343 78.7975C215.752 79.171 215.961 79.7546 215.961 80.5482C215.961 81.266 215.781 81.797 215.425 82.1296C215.064 82.4623 214.679 82.6315 214.271 82.6315C213.863 82.6315 213.466 82.4973 213.099 82.2288C212.726 81.9604 212.505 81.5286 212.423 80.9392C212.347 80.3498 212.51 79.5912 212.924 78.6633L213.426 78.78C212.347 79.1885 211.578 79.6203 211.117 80.0697C210.657 80.519 210.231 81.1026 209.846 81.8204H209.841Z" fill="#DBDBDB"/>
<path d="M215.845 99.5845C216.049 99.6895 216.276 99.7712 216.521 99.8354C216.766 99.8996 217.127 99.9346 217.617 99.9346C218.748 99.9346 219.675 99.5961 220.409 98.9134C221.138 98.2306 221.505 97.2502 221.505 95.9664C221.505 95.1728 221.359 94.3791 221.062 93.5971C220.765 92.8152 220.246 91.9107 219.506 90.8778C218.917 90.0549 218.351 89.2146 217.809 88.3509C217.273 87.4931 216.999 86.4719 216.999 85.2873C216.999 84.1843 217.267 83.2273 217.809 82.4161C218.351 81.605 219.074 80.9689 219.984 80.5079C220.893 80.0469 221.89 79.8135 222.968 79.8135C223.714 79.8135 224.443 79.901 225.16 80.0819C225.877 80.2628 226.477 80.5896 226.949 81.0623C227.422 81.535 227.661 82.2352 227.661 83.1631C227.661 83.3965 227.602 83.6708 227.486 83.9918C227.369 84.3127 227.183 84.587 226.926 84.8204C226.67 85.0538 226.32 85.1647 225.889 85.1647C225.475 85.1647 225.119 85.0188 224.81 84.7212C224.501 84.4236 224.35 84.0326 224.35 83.5483C224.35 83.0872 224.449 82.6437 224.641 82.2177C224.833 81.7917 225.096 81.3774 225.428 80.9631C224.938 80.6538 224.297 80.5021 223.504 80.5021C222.554 80.5021 221.761 80.823 221.12 81.465C220.479 82.1069 220.158 83.0055 220.158 84.161C220.158 84.7504 220.246 85.2698 220.427 85.7191C220.607 86.1684 220.87 86.6353 221.213 87.1255C221.557 87.6157 221.977 88.2284 222.467 88.9754C223.108 89.9499 223.644 90.8894 224.081 91.7881C224.519 92.6868 224.734 93.638 224.734 94.6417C224.734 95.8263 224.431 96.8709 223.831 97.7813C223.23 98.6916 222.426 99.4036 221.423 99.9229C220.421 100.436 219.319 100.693 218.112 100.693C217.238 100.693 216.404 100.565 215.612 100.308C214.813 100.051 214.166 99.6487 213.67 99.0943C213.169 98.5399 212.918 97.8046 212.918 96.8767C212.918 96.5149 213.029 96.1356 213.245 95.7388C213.466 95.342 213.857 95.1436 214.417 95.1436C215.034 95.1436 215.466 95.3945 215.728 95.8964C215.985 96.3982 216.113 96.9584 216.113 97.5712C216.113 97.9797 216.078 98.3473 216.014 98.6683C215.95 98.9892 215.891 99.2927 215.839 99.5728L215.845 99.5845Z" fill="#DBDBDB"/>
</g>
<defs>
<clipPath id="clip0_53_592">
<rect width="315" height="119.104" fill="white"/>
</clipPath>
</defs>
</svg>
