<svg width="312" height="118" viewBox="0 0 312 118" fill="none" xmlns="http://www.w3.org/2000/svg">
<g clip-path="url(#clip0_53_561)">
<path d="M85.4625 114.671C83.511 115.142 81.5653 115.647 79.608 116.084C74.5791 117.199 69.4751 117.549 64.3538 117.02C57.4715 116.314 50.9934 114.349 45.6932 109.712C39.8502 104.599 36.6227 98.2677 37.8294 90.3162C38.4587 86.1624 40.6527 82.7095 43.4703 79.653C48.2683 74.4477 54.2498 70.989 60.6702 68.1738C60.8434 68.0991 61.0224 68.0302 61.1956 67.9555C61.2476 67.9325 61.2938 67.8808 61.3053 67.7142C60.6413 67.9095 59.9716 68.0991 59.3076 68.306C53.684 70.0411 48.3664 72.3966 43.8167 76.2C40.185 79.2393 37.379 82.8244 36.4379 87.593C35.9702 89.9543 36.0337 92.2984 36.6053 94.6367C36.6689 94.901 36.7266 95.1653 36.715 95.4411C34.5903 92.4075 33.6954 89.0178 33.8397 85.3581C33.9841 81.6236 35.6296 78.5211 38.095 75.7806C36.5765 76.7056 35.3409 77.9466 34.2959 79.3485C30.1908 84.8754 29.8443 90.8678 32.2635 97.1302C34.4806 102.864 38.17 107.466 43.222 110.999C43.2971 111.051 43.3606 111.126 43.3779 111.315C42.737 111.068 42.0904 110.838 41.461 110.563C40.7913 110.27 40.1331 109.954 39.4922 109.609C33.3605 106.323 28.4298 101.818 25.6815 95.3549C22.939 88.9029 23.2392 82.6233 27.8062 76.9756C30.4506 73.7066 34.0014 71.6038 37.8005 69.8859C43.7648 67.1856 50.1332 65.8355 56.4612 64.3532C63.1933 62.779 69.9947 61.4518 76.4324 58.8377C80.1565 57.3267 83.742 55.5514 86.5884 52.6385C89.0191 50.1565 90.6358 47.2839 90.2836 43.6586C90.0353 41.1134 88.7478 39.0681 86.9348 37.3445C83.9152 34.4604 80.1276 32.9896 76.2419 31.7428C72.4082 30.5133 68.4705 29.5654 64.8735 27.7039C63.8977 27.1983 62.9566 26.5778 62.1078 25.8711C59.1979 23.4409 58.5339 19.264 60.5778 16.0007C61.3168 14.8171 62.3042 13.7887 63.3319 12.4903C62.9046 13.8347 62.385 14.8746 62.2637 15.9547C61.7787 20.1545 63.7649 23.3547 68.1587 25.0495C72.3504 26.6697 76.6634 27.9854 80.9186 29.4447C85.0122 30.8466 88.996 32.4495 92.5122 35.0579C99.1404 39.9759 100.595 48.41 95.9995 55.2411C93.4129 59.0905 89.9256 61.8195 85.757 63.7614C79.7754 66.5422 73.7996 69.3286 67.8238 72.1151C62.9912 74.3673 58.2164 76.7458 53.7995 79.7391C50.162 82.2039 47.3098 85.3925 45.5777 89.4659C43.632 94.0392 44.3017 98.3367 46.9923 102.427C49.192 105.771 52.2406 108.155 55.7279 110.011C64.9947 114.941 74.8504 116.072 85.1219 114.441C85.2142 114.429 85.3066 114.441 85.399 114.441C85.4163 114.521 85.4337 114.596 85.451 114.676L85.4625 114.671Z" fill="#DBDBDB"/>
<path d="M23.424 96.4982C18.9955 91.3274 16.2877 85.5017 16.8708 78.5728C17.35 72.8965 20.2888 68.5645 24.8847 65.2897C28.4471 62.7445 32.4656 61.245 36.6804 60.1821C41.4091 58.9928 46.2475 58.5504 51.0801 58.0908C58.2106 57.4129 65.2661 56.3902 72.0271 53.9025C75.4913 52.627 78.8805 51.1964 81.7212 48.7604C82.3678 48.2089 82.9567 47.5712 83.4764 46.899C85.4741 44.3078 85.4568 41.3777 83.2858 38.9245C80.6357 35.9254 77.1542 34.311 73.2915 33.4262C70.8839 32.8747 68.4243 32.4552 66.0859 31.7026C62.4196 30.5133 60.4566 27.5258 58.7187 24.3888C58.7822 24.3314 58.8457 24.2739 58.9034 24.2165C59.1402 24.5382 59.3653 24.8772 59.6194 25.1874C59.8965 25.5322 60.1968 25.8596 60.5028 26.1814C62.6852 28.4737 65.3873 29.8182 68.4416 30.6282C71.9347 31.5532 75.4278 32.5184 78.8459 33.679C81.6577 34.6327 84.2674 36.0346 86.0803 38.5338C88.3898 41.7167 88.3436 44.9915 86.4094 48.3008C84.6427 51.3228 81.8713 53.282 78.9556 55.0688C73.3377 58.5102 67.2349 60.5441 60.7048 61.5323C54.3422 62.4975 47.9969 63.635 41.8594 65.6746C38.3894 66.8294 35.0234 68.2255 31.9864 70.2938C31.8363 70.3973 31.6804 70.4834 31.5245 70.5754C31.4725 70.4949 31.4148 70.4202 31.3628 70.3398C33.3548 68.9092 35.3467 67.4786 37.2751 66.0998C30.7104 67.9038 25.1561 71.2533 22.0614 77.6593C18.932 84.14 20.1907 90.4197 23.4297 96.5097L23.424 96.4982Z" fill="#DBDBDB"/>
<path d="M73.6264 6.87139C72.8527 7.52635 72.0733 8.18132 71.2938 8.83628L66.7153 11.1976C67.5005 10.6575 68.2164 10.0026 68.9728 9.41081C69.5848 8.93395 69.9139 8.23303 69.6021 7.57806C69.3135 6.9748 68.7072 6.49794 68.176 6.04406C68.0836 5.96363 67.616 6.19344 67.4197 6.37729C64.5386 9.04886 61.6864 11.7549 58.788 14.4092C50.7105 21.8322 42.4945 29.0942 33.8224 35.8277C26.8651 41.2283 19.7634 46.4566 12.7022 51.725C10.8546 53.1039 8.90307 54.3564 6.99197 55.6663C7.5578 56.8671 8.09475 57.9989 8.64903 59.1767C25.0291 46.3761 40.7393 32.6161 56.8769 19.3617C56.9346 19.4306 56.9923 19.4938 57.0501 19.5628C54.6424 21.7402 52.2983 23.9924 49.8156 26.0894C41.7555 32.9034 33.6723 39.6943 25.5487 46.4336C18.9609 51.8974 12.3038 57.275 5.66979 62.6871C5.13284 63.1294 4.58433 63.5948 3.96655 63.8878C3.48155 64.1176 2.88686 64.1464 2.33258 64.1751C2.14783 64.1866 1.87069 63.9568 1.78986 63.7729C1.73212 63.6523 1.90533 63.3707 2.0439 63.2271C3.55084 61.6701 3.58548 61.3829 2.22288 59.7052C1.54736 58.8722 0.80255 58.0966 0.0115509 57.206C0.95844 56.574 1.84182 55.9823 2.73097 55.3848C11.2472 49.6395 19.6306 43.7046 27.76 37.4134C36.9922 30.2663 45.8895 22.7227 54.4923 14.8459C59.5386 10.2266 64.4462 5.44655 69.3885 0.712418C70.0409 0.0919248 70.7453 -0.0689438 71.5594 0.0287264C72.4428 0.137887 72.6622 0.718163 72.1022 1.40185C71.8828 1.67188 71.646 1.92468 71.2823 2.34409C71.9116 2.71753 72.4659 3.10821 73.0721 3.38399C74.81 4.17109 75.0987 5.64764 73.6495 6.87139H73.6264Z" fill="#2D3E52"/>
<path d="M102.634 47.8469C102.068 50.6621 100.595 53.0407 98.7363 54.9769C99.2502 53.2935 100.024 51.5124 100.33 49.651C101.525 42.4176 98.6266 36.9711 92.5873 33.0413C88.8055 30.5765 84.5561 29.1689 80.2546 27.8935C76.6692 26.8306 73.0779 25.7792 69.5675 24.5095C68.2107 24.0154 67.0097 22.9985 65.8435 22.0907C63.1414 19.9879 62.3965 13.8519 66.2534 11.4906C66.2996 11.4619 66.3515 11.4332 66.392 11.3987C66.392 11.3987 64.2384 14.0186 64.5617 16.8567C64.5617 16.8912 64.5732 16.9314 64.5732 16.9659C64.5848 17.0578 64.5963 17.1555 64.6194 17.2474C64.6541 17.4255 64.7003 17.6036 64.758 17.7817C64.758 17.7875 64.758 17.799 64.7638 17.8105C64.8042 17.9311 64.8446 18.046 64.8966 18.1667C64.9254 18.2356 64.9543 18.2988 64.9832 18.3677C65.0063 18.4195 65.0294 18.4654 65.0525 18.5114C65.2834 18.9768 65.5894 19.4421 65.982 19.8903C67.8469 22.0677 70.3296 23.2513 73.0548 23.9292C76.5017 24.791 79.9833 25.5034 83.4186 26.4112C88.5168 27.7613 93.4245 29.5941 97.3968 33.2136C101.721 37.1492 103.811 41.9522 102.622 47.8354L102.634 47.8469Z" fill="#DBDBDB"/>
<path d="M75.3585 39.3496C70.168 36.2816 60.3007 37.0285 57.6794 46.3876C57.2637 47.8757 56.9866 49.3982 56.542 50.8805C56.3284 51.5871 55.9589 52.2938 55.497 52.8741C54.9946 53.5003 54.908 54.0806 55.1563 54.7987C55.3006 55.2067 55.3584 55.6433 55.4854 56.2064C54.4057 56.2753 53.4415 56.3385 52.5928 56.3902C52.0096 55.402 51.4842 54.5057 50.8607 53.4486C50.9877 53.3624 51.2417 53.0752 51.5593 52.989C53.6494 52.3915 54.7521 50.9954 55.2083 48.9213C55.6067 47.1115 55.9935 45.2615 56.6921 43.5552C59.094 37.695 65.3816 35.0866 71.0167 35.8163C72.4197 36.0001 73.8112 36.3965 75.1738 36.8044C76.0283 37.0572 76.7211 37.2239 77.0445 36.0863C79.4867 37.1836 81.7674 38.3212 82.4487 41.1479C82.5064 41.3777 82.4025 41.6765 82.287 41.9005C81.0225 44.3768 79.7466 46.8472 78.4532 49.3062C78.3147 49.5763 78.0953 49.8463 77.847 50.0072C74.7003 51.9836 71.3112 53.3624 67.6044 53.891C67.5178 53.9025 67.4312 53.868 67.2465 53.8393C68.6148 51.3631 69.9486 48.9328 71.3054 46.5083C72.6449 44.1182 74.0017 41.7397 75.3528 39.3554L75.3585 39.3496Z" fill="#2D3E52"/>
<path d="M91.7386 11.617C91.3575 10.8931 91.0284 10.3588 90.7917 9.79001C90.4626 8.98566 90.5549 8.30197 91.5134 7.963C91.6635 7.91129 91.8656 7.72744 91.8714 7.5953C91.9291 6.69903 92.57 6.64158 93.257 6.47496C93.8691 6.32559 94.5273 6.04981 94.9834 5.6304C95.6127 5.05587 96.1728 4.99267 96.8656 5.3891C97.1659 5.56146 97.4603 5.75105 97.7663 5.92341C98.6555 6.42326 98.9211 7.1644 98.54 8.08939C98.2802 8.71563 98.2975 9.181 98.8691 9.64637C99.7813 10.3875 98.9615 11.3068 98.9499 12.1283C98.9499 12.3524 98.1763 12.565 97.7605 12.7891C97.5527 12.8982 97.2871 12.9787 97.1658 13.151C96.7213 13.7945 96.3287 14.4782 95.9072 15.1561C96.5827 15.5755 97.1543 15.7421 97.9222 15.2366C98.6959 14.731 99.458 15.2366 100.064 15.7824C100.607 16.2707 100.925 16.8855 100.636 17.6496C100.336 18.4539 99.6659 18.7355 98.898 18.7182C97.9222 18.6895 97.1023 18.4309 96.6116 17.3738C96.4037 16.9314 95.5954 16.7648 94.9949 16.4373C94.3656 17.3623 93.7998 18.1839 93.182 19.0859C94.1231 19.4077 94.7813 20.1143 95.7917 19.3215C96.5538 18.724 98.0839 19.6202 98.5054 20.7463C98.8518 21.677 98.3726 22.4986 97.2986 22.8319C95.9072 23.2628 94.9603 22.7974 94.5042 21.4875C94.4464 21.3266 94.2386 21.1715 94.0654 21.1025C93.5688 20.8957 93.055 20.7348 92.4314 20.5165C91.4383 22.6423 90.4568 24.745 89.4637 26.8708C87.4833 26.1526 85.6126 25.4804 83.6092 24.7565C84.5445 22.9812 85.4568 21.2634 86.3863 19.5053C85.6877 19.1951 85.1334 18.8331 84.3193 19.2698C83.4821 19.7236 81.8366 18.8044 81.5191 17.8507C81.2073 16.9199 81.7038 15.9662 82.6623 15.6617C83.9267 15.2538 85.2431 15.8341 85.4568 17.0176C85.6357 18.0345 86.548 17.6783 87.1196 18.1839C87.7489 17.1785 88.3436 16.2362 88.9845 15.2251C88.1358 14.8976 87.4833 14.438 86.5307 14.9091C85.6415 15.3515 84.3193 14.5529 84.0076 13.5991C83.7189 12.7144 84.2674 11.8813 85.3528 11.5481C86.5307 11.1861 87.6796 11.6457 87.8644 12.6914C88.0318 13.6451 88.8459 13.5704 89.4175 13.8175C89.6138 13.9036 90.0931 13.5302 90.3413 13.2717C90.8667 12.7316 91.3229 12.1226 91.7386 11.6343V11.617Z" fill="#2D3E52"/>
<path d="M53.124 81.4857C56.2822 83.0944 59.3538 84.6571 62.5871 86.3003C61.5882 87.3861 61.4266 88.9431 60.0351 89.6498C59.9369 89.6957 59.8908 89.8394 59.8215 89.937C59.0651 91.0401 58.3838 92.1949 57.5351 93.2234C56.6171 94.3437 55.4739 95.2859 54.5674 96.412C53.0893 98.2505 52.281 100.399 51.9923 102.732C51.8884 103.582 51.3976 103.852 50.7914 103.381C49.6886 102.519 48.6897 101.514 47.6678 100.543C46.796 99.7156 46.7151 98.8825 47.3098 97.7277C49.5154 93.4704 50.7972 88.8799 51.9692 84.2607C52.1251 83.6517 52.3156 83.0484 52.5466 82.4624C52.6794 82.1177 52.9219 81.8074 53.1182 81.4857H53.124Z" fill="#2D3E52"/>
<path d="M73.765 101.876C73.5745 99.6983 73.4128 97.6587 73.2223 95.6192C72.974 93.0453 72.6969 90.4714 72.4544 87.8975C72.4313 87.6791 72.6218 87.4378 72.7142 87.208C72.9163 87.2942 73.1645 87.3402 73.3204 87.4838C74.7177 88.7478 76.0341 90.029 77.7777 90.9482C82.4544 93.4072 83.2339 99.2387 79.4463 102.939C80.3644 100.577 80.9533 98.285 79.5098 96.0615C78.4071 94.3667 76.7038 93.5968 74.6022 93.4015C74.7581 95.171 74.8966 96.8946 75.0583 98.6182C75.2315 100.468 75.4567 102.318 75.5953 104.174C75.8147 107.024 74.1923 109.098 71.3458 109.609C70.6068 109.741 69.8216 109.776 69.0825 109.684C66.34 109.345 65.1679 106.932 66.6806 104.611C68.0317 102.531 70.0929 101.686 72.5583 101.79C72.9047 101.807 73.2454 101.841 73.7708 101.882L73.765 101.876Z" fill="#2D3E52"/>
<path d="M80.0872 86.5588C80.4452 87.9549 78.7708 89.7589 76.698 90.1152C76.9694 88.9776 76.2823 88.3456 75.5722 87.6045C72.5467 84.4675 71.9001 80.6584 72.9913 76.6022C74.1576 72.276 76.8077 69.0931 81.1149 67.4614C81.8424 67.1856 82.6276 67.0592 83.4879 66.8352C83.9556 65.2782 85.6069 65.2897 86.9522 64.7841C86.8425 64.9622 86.7558 65.1748 86.6173 65.3241C85.6646 66.3066 85.3644 67.4844 85.5318 68.8115C85.5722 69.1505 85.5722 69.5125 85.5145 69.8515C85.3759 70.673 84.6715 70.9488 84.0711 70.3628C83.1646 69.4723 82.16 69.4952 81.0687 69.8342C79.5445 70.3053 78.4128 71.305 77.5237 72.5747C75.4105 75.5968 74.5964 78.9003 75.3701 82.5428C75.422 82.7899 75.4971 83.0312 75.5779 83.2725C76.3862 85.6913 77.5006 86.5014 80.093 86.5646L80.0872 86.5588Z" fill="#2D3E52"/>
<path d="M64.5906 106.731C64.5501 108.316 64.2615 108.759 62.7545 109.011C58.7071 109.695 55.1563 108.632 52.1655 105.806C51.9173 105.57 51.7152 105.277 51.5304 104.984C51.1782 104.409 51.1955 104.381 51.7729 103.841C55.4623 107.276 59.833 107.707 64.5906 106.725V106.731Z" fill="#2D3E52"/>
<path d="M123.044 26.595C123.696 26.595 124.441 26.6123 125.295 26.6467C126.144 26.6812 127.022 26.7904 127.922 26.9685C128.823 27.1466 129.701 27.4453 130.549 27.859C131.398 28.2727 132.166 28.8414 132.853 29.5596C133.54 30.2778 134.089 31.2028 134.504 32.3346C134.92 33.4664 135.128 34.8625 135.128 36.5172V39.9127C135.128 41.0617 134.984 42.0901 134.695 42.9864C134.406 43.8827 134.037 44.6583 133.586 45.3075C133.136 45.9567 132.64 46.4853 132.097 46.8989C131.554 47.3126 131.011 47.6114 130.469 47.7895L136.161 64.3475H129.655L124.666 49.1396H122.12V64.3475H115.884V26.595H123.038H123.044ZM122.12 43.4805H124.937C125.515 43.4805 126.046 43.3886 126.537 43.2105C127.022 43.0324 127.437 42.7508 127.784 42.3716C128.124 41.9925 128.396 41.5328 128.598 40.9985C128.794 40.4585 128.898 39.8322 128.898 39.1083V36.2471C128.898 35.3509 128.765 34.6385 128.494 34.1156C128.223 33.5928 127.87 33.1964 127.437 32.9264C127.004 32.6563 126.542 32.4782 126.057 32.3863C125.573 32.2944 125.111 32.2542 124.678 32.2542H122.131V43.4747L122.12 43.4805Z" fill="#2D3E52"/>
<path d="M147.005 26.595V64.3532H140.769V26.595H147.005Z" fill="#2D3E52"/>
<path d="M164.291 64.3532H158.818L150.85 26.595H157.68L161.421 51.0298H161.693L165.758 26.595H172.317L164.291 64.3532Z" fill="#2D3E52"/>
<path d="M176.162 26.595H192.045V32.5816H182.397V42.4521H190.798V48.117H182.397V58.3666H192.207V64.3532H176.162V26.595Z" fill="#2D3E52"/>
<path d="M204.782 26.595C205.435 26.595 206.179 26.6123 207.034 26.6467C207.883 26.6812 208.76 26.7904 209.661 26.9685C210.562 27.1466 211.439 27.4453 212.288 27.859C213.137 28.2727 213.905 28.8414 214.592 29.5596C215.279 30.2778 215.827 31.2028 216.243 32.3346C216.659 33.4664 216.866 34.8625 216.866 36.5172V39.9127C216.866 41.0617 216.722 42.0901 216.433 42.9864C216.145 43.8827 215.775 44.6583 215.325 45.3075C214.875 45.9567 214.378 46.4853 213.835 46.8989C213.293 47.3126 212.75 47.6114 212.207 47.7895L217.9 64.3475H211.393L206.404 49.1396H203.858V64.3475H197.623V26.595H204.776H204.782ZM203.858 43.4805H206.676C207.253 43.4805 207.784 43.3886 208.275 43.2105C208.76 43.0324 209.176 42.7508 209.522 42.3716C209.863 41.9925 210.134 41.5328 210.336 40.9985C210.533 40.4585 210.637 39.8322 210.637 39.1083V36.2471C210.637 35.3509 210.504 34.6385 210.232 34.1156C209.961 33.5928 209.609 33.1964 209.176 32.9264C208.743 32.6563 208.281 32.4782 207.796 32.3863C207.311 32.2944 206.849 32.2542 206.416 32.2542H203.87V43.4747L203.858 43.4805Z" fill="#2D3E52"/>
<path d="M247.715 35.8737C247.715 35.5864 247.687 35.1613 247.635 34.604C247.583 34.0467 247.352 33.5354 246.959 33.0642C246.74 32.777 246.451 32.5529 246.093 32.392C245.729 32.2312 245.262 32.1507 244.684 32.1507C244.142 32.1507 243.691 32.2312 243.327 32.392C242.964 32.5529 242.675 32.777 242.461 33.0642C242.063 33.5296 241.809 34.0984 241.705 34.7649C241.595 35.4313 241.543 36.069 241.543 36.678V54.0978C241.543 54.9998 241.607 55.764 241.734 56.3902C241.861 57.0222 242.086 57.5335 242.409 57.9299C242.663 58.2172 242.952 58.4355 243.275 58.5792C243.599 58.7228 244.015 58.7975 244.523 58.7975C244.956 58.7975 245.406 58.7343 245.879 58.6079C246.347 58.4815 246.728 58.1885 247.017 57.7174C247.236 57.3956 247.404 56.9992 247.531 56.5281C247.658 56.0627 247.721 55.4652 247.721 54.747V53.5061H253.899V55.1779C253.899 56.7579 253.674 58.1827 253.224 59.441C252.773 60.6992 252.075 61.7621 251.139 62.6239C250.342 63.342 249.384 63.8993 248.264 64.2957C247.144 64.6922 245.827 64.8875 244.309 64.8875C243.079 64.8875 241.994 64.7324 241.058 64.4279C240.117 64.1234 239.303 63.7212 238.622 63.2156C238.004 62.7503 237.49 62.2274 237.074 61.6529C236.659 61.0784 236.318 60.4866 236.047 59.8719C235.775 59.2629 235.585 58.6596 235.475 58.0621C235.365 57.4646 235.314 56.9015 235.314 56.3615V35.3911C235.314 34.7074 235.377 34.0524 235.504 33.4205C235.631 32.7942 235.81 32.191 236.047 31.6107C236.283 31.0362 236.578 30.4846 236.942 29.9675C237.3 29.4447 237.698 28.9678 238.137 28.5369C238.968 27.7441 239.915 27.1351 240.983 26.7042C242.046 26.2733 243.235 26.055 244.534 26.055C245.62 26.055 246.711 26.2446 247.814 26.6238C248.916 27.0029 249.898 27.566 250.77 28.3244C251.67 29.077 252.398 30.0077 252.941 31.0994C253.483 32.1967 253.755 33.5009 253.755 35.0119V37.7065H247.739V35.8737H247.715Z" fill="#2D3E52"/>
<path d="M265.279 26.595V64.3532H259.043V26.595H265.279Z" fill="#2D3E52"/>
<path d="M288.859 26.595V32.5816H282.352V64.3532H276.116V32.5874H269.609V26.6008H288.853L288.859 26.595Z" fill="#2D3E52"/>
<path d="M304.032 48.657V64.3532H297.797V48.4961L289.777 26.595H296.607L300.834 40.9411H301.267L305.383 26.595H311.994L304.026 48.657H304.032Z" fill="#2D3E52"/>
<path d="M134.868 71.4889C134.614 72.1496 134.279 73.1033 133.858 74.3558C133.436 75.6083 133.026 77.2342 132.616 79.2335H131.854C131.929 78.8773 131.987 78.5154 132.028 78.1305C132.068 77.7513 132.085 77.395 132.085 77.0676C132.085 76.1311 131.901 75.2808 131.531 74.5052C131.161 73.7353 130.584 73.1148 129.799 72.6437C129.008 72.1783 127.969 71.9428 126.67 71.9428C125.145 71.9428 123.875 72.3334 122.859 73.1205C121.843 73.9076 121.335 75.1199 121.335 76.7631C121.335 77.7225 121.571 78.6188 122.039 79.4404C122.507 80.262 123.107 81.0491 123.829 81.7902C124.551 82.5371 125.33 83.284 126.156 84.0309C126.981 84.7778 127.755 85.5419 128.482 86.329C129.204 87.1161 129.805 87.9434 130.272 88.8167C130.74 89.69 130.977 90.6552 130.977 91.7181C130.977 93.0338 130.682 94.1599 130.099 95.0963C129.516 96.0328 128.754 96.797 127.813 97.3945C126.872 97.9862 125.838 98.4344 124.706 98.7216C123.575 99.0146 122.449 99.1583 121.335 99.1583C120.318 99.1583 119.464 99.0606 118.783 98.871C118.101 98.6814 117.524 98.4459 117.068 98.1701C116.612 97.8943 116.231 97.6415 115.925 97.4117C115.642 97.1819 115.382 97.0325 115.145 96.9578C114.903 96.8831 114.706 96.8429 114.556 96.8429C114.227 96.8429 113.95 97.0153 113.736 97.3542C113.517 97.6932 113.274 98.2103 112.992 98.8882H112.229C112.46 98.3309 112.703 97.6875 112.951 96.9521C113.205 96.2167 113.482 95.2744 113.788 94.1254C114.094 92.9763 114.435 91.5285 114.816 89.7819H115.578C115.474 90.3105 115.388 90.8276 115.313 91.3159C115.238 91.8043 115.209 92.3214 115.238 92.8499C115.313 94.5678 115.85 95.9237 116.837 96.9119C117.824 97.9 119.366 98.3941 121.45 98.3941C123.101 98.3941 124.447 98.015 125.492 97.2566C126.531 96.4982 127.056 95.2974 127.056 93.6543C127.056 92.5914 126.849 91.6434 126.427 90.8103C126.006 89.9773 125.463 89.1959 124.787 88.4777C124.112 87.7596 123.402 87.0529 122.651 86.3692C121.9 85.6855 121.19 84.9731 120.515 84.2262C119.839 83.4793 119.296 82.652 118.875 81.7385C118.454 80.8307 118.246 79.7908 118.246 78.6303C118.246 77.4697 118.488 76.3494 118.967 75.4244C119.452 74.4994 120.093 73.7295 120.89 73.109C121.693 72.4886 122.587 72.0232 123.581 71.7072C124.574 71.3912 125.59 71.2303 126.629 71.2303C127.668 71.2303 128.609 71.3567 129.372 71.6095C130.134 71.8623 130.873 72.2702 131.583 72.8218C131.889 73.0516 132.143 73.2182 132.345 73.3331C132.547 73.448 132.715 73.5055 132.842 73.5055C133.2 73.5055 133.615 72.8333 134.1 71.4946H134.862L134.868 71.4889Z" fill="#2D3E52"/>
<path d="M138.263 95.3894C138.032 96.2224 138.09 96.8257 138.436 97.1934C138.777 97.5611 139.233 97.7449 139.787 97.7449C140.342 97.7449 140.913 97.5036 141.485 97.0268C142.056 96.5442 142.622 95.5215 143.182 93.953L143.714 92.4707H144.435L143.633 94.8608C143.073 96.5039 142.357 97.63 141.479 98.239C140.601 98.848 139.58 99.1468 138.407 99.1468C137.362 99.1468 136.571 98.9227 136.023 98.4803C135.474 98.0379 135.151 97.4117 135.053 96.6016C134.949 95.7915 135.053 94.8723 135.359 93.8324L141.271 73.3446C141.883 73.3216 142.484 73.2699 143.084 73.1952C143.679 73.1205 144.222 72.9941 144.707 72.816L138.263 95.3894ZM147.946 79.1129L147.83 79.8713H135.971L136.162 79.1129H147.94H147.946Z" fill="#2D3E52"/>
<path d="M150.688 98.6125H147.368L151.941 82.336C152.195 81.4742 152.276 80.871 152.189 80.5147C152.097 80.1585 151.837 79.9862 151.41 79.9862C150.85 79.9862 150.342 80.2792 149.886 80.8595C149.43 81.4397 148.945 82.4394 148.436 83.8585L147.94 85.2604H147.218L148.171 82.4911C148.552 81.4283 149.002 80.6182 149.522 80.0609C150.042 79.5036 150.59 79.1186 151.162 78.9061C151.733 78.6935 152.276 78.5843 152.784 78.5843C153.546 78.5843 154.089 78.7509 154.406 79.0784C154.724 79.4059 154.903 79.8368 154.938 80.3711C154.978 80.8997 154.938 81.48 154.822 82.0947C154.707 82.7152 154.574 83.3127 154.424 83.8987L150.688 98.6182V98.6125ZM160.486 79.5323C159.903 79.5323 159.297 79.8023 158.673 80.3481C158.05 80.8939 157.415 81.6753 156.768 82.698C156.121 83.7206 155.469 84.9501 154.822 86.3807C154.175 87.8113 153.54 89.397 152.917 91.1436C152.293 92.8901 151.693 94.7746 151.104 96.7969L152.057 91.9422C152.894 89.4659 153.679 87.3746 154.401 85.6798C155.122 83.9849 155.844 82.6118 156.554 81.5661C157.264 80.5147 157.998 79.7564 158.748 79.291C159.499 78.8256 160.29 78.5901 161.133 78.5901C161.843 78.5901 162.397 78.7912 162.79 79.1991C163.183 79.607 163.379 80.1241 163.379 80.756C163.379 81.2616 163.252 81.7213 162.998 82.1407C162.744 82.5601 162.42 82.8876 162.028 83.1289C161.635 83.3702 161.196 83.4908 160.711 83.4908C160.278 83.4908 159.915 83.3702 159.626 83.1289C159.331 82.8876 159.187 82.5543 159.187 82.1234C159.187 81.7213 159.262 81.3593 159.418 81.0433C159.568 80.7273 159.776 80.4573 160.03 80.2275C160.284 79.9977 160.579 79.8253 160.908 79.6989C160.856 79.6472 160.798 79.6127 160.734 79.584C160.671 79.561 160.59 79.5438 160.486 79.5438V79.5323Z" fill="#2D3E52"/>
<path d="M167.963 82.336C168.494 80.7675 168.321 79.9862 167.432 79.9862C166.849 79.9862 166.323 80.3022 165.867 80.9342C165.411 81.5661 164.926 82.5428 164.418 83.8528L163.887 85.2546H163.165L164.158 82.4854C164.539 81.4225 164.995 80.6124 165.532 80.0551C166.064 79.4978 166.629 79.1129 167.23 78.9003C167.825 78.6877 168.379 78.5786 168.887 78.5786C169.701 78.5786 170.296 78.7452 170.677 79.0727C171.058 79.4002 171.289 79.8311 171.364 80.3654C171.439 80.8939 171.416 81.4742 171.289 82.089C171.162 82.7095 170.994 83.307 170.792 83.893L166.71 95.3894C166.456 96.1248 166.375 96.6993 166.462 97.1129C166.549 97.5324 166.837 97.7392 167.322 97.7392C167.83 97.7392 168.315 97.4634 168.771 96.9061C169.228 96.3488 169.736 95.3376 170.296 93.8726L170.827 92.4707H171.549L170.556 95.24C170.198 96.2282 169.765 97.0038 169.256 97.5726C168.748 98.1414 168.2 98.5493 167.617 98.7848C167.034 99.0261 166.445 99.1468 165.861 99.1468C164.77 99.1468 164.031 98.894 163.65 98.3884C163.269 97.8828 163.131 97.2279 163.229 96.4178C163.333 95.6077 163.546 94.7459 163.875 93.8381L167.957 82.3418L167.963 82.336ZM169.147 72.207C169.274 71.5521 169.609 70.9833 170.157 70.5007C170.706 70.0181 171.295 69.7825 171.93 69.7825C172.565 69.7825 173.108 70.0238 173.471 70.5007C173.841 70.9833 173.962 71.5521 173.835 72.207C173.708 72.8677 173.373 73.4365 172.825 73.9134C172.276 74.396 171.676 74.6315 171.012 74.6315C170.348 74.6315 169.874 74.3902 169.505 73.9134C169.135 73.4308 169.014 72.862 169.141 72.207H169.147Z" fill="#2D3E52"/>
<path d="M177.721 98.6125H174.407L178.979 82.336C179.083 82.0315 179.164 81.6983 179.228 81.3306C179.291 80.9629 179.274 80.6469 179.17 80.3826C179.066 80.1183 178.812 79.9862 178.408 79.9862C177.848 79.9862 177.351 80.2562 176.918 80.802C176.485 81.3478 176.006 82.3647 175.469 83.8585L174.972 85.2604H174.251L175.203 82.4911C175.763 80.8997 176.456 79.8483 177.282 79.3427C178.108 78.8371 178.927 78.5843 179.742 78.5843C180.504 78.5843 181.058 78.7509 181.399 79.0784C181.739 79.4059 181.93 79.8311 181.97 80.3481C182.011 80.8652 181.97 81.434 181.855 82.0545C181.739 82.675 181.606 83.2897 181.456 83.893L177.721 98.6125ZM179.476 90.7242C180.365 88.449 181.231 86.5358 182.068 84.9961C182.906 83.4506 183.731 82.2096 184.545 81.2616C185.359 80.3137 186.191 79.63 187.045 79.2106C187.894 78.7912 188.777 78.5843 189.695 78.5843C190.891 78.5843 191.71 78.8716 192.155 79.4404C192.6 80.0092 192.796 80.7331 192.744 81.6006C192.692 82.4739 192.513 83.3759 192.213 84.3124L188.512 95.3893C188.281 96.073 188.188 96.6361 188.223 97.0785C188.264 97.5209 188.558 97.7449 189.118 97.7449C189.597 97.7449 190.076 97.4806 190.55 96.9463C191.018 96.4178 191.52 95.3893 192.057 93.8726L192.553 92.4707H193.275L192.322 95.24C191.964 96.3029 191.526 97.1129 191.006 97.6702C190.486 98.2275 189.938 98.6125 189.366 98.825C188.795 99.0376 188.24 99.1468 187.709 99.1468C187.097 99.1468 186.595 99.0434 186.202 98.8423C185.81 98.6412 185.509 98.3769 185.307 98.0437C185.024 97.5898 184.938 96.9923 185.042 96.2626C185.146 95.5272 185.348 94.7229 185.654 93.8324L189.274 82.9795C189.401 82.6233 189.511 82.2039 189.597 81.7098C189.684 81.2157 189.667 80.7733 189.54 80.3826C189.412 79.9919 189.043 79.7966 188.431 79.7966C187.819 79.7966 187.172 80.0609 186.485 80.5952C185.798 81.1295 185.088 81.8764 184.349 82.8531C183.61 83.8298 182.888 84.9903 182.178 86.3462C181.468 87.7021 180.787 89.1902 180.14 90.8218C179.493 92.4535 178.899 94.1943 178.367 96.0386L179.476 90.7299V90.7242Z" fill="#2D3E52"/>
<path d="M203.038 90.0749L203.991 90.1152C203.079 90.6208 202.23 91.0804 201.456 91.4998C200.683 91.9192 200.053 92.3041 199.568 92.6546C199.083 93.0108 198.847 93.3498 198.847 93.6773C198.847 93.93 199.026 94.1656 199.378 94.3782C199.736 94.5908 200.319 94.8033 201.133 95.0044L203.916 95.7226C204.73 95.9237 205.458 96.1592 206.11 96.4235C206.757 96.6878 207.271 97.0268 207.652 97.4289C208.033 97.8311 208.223 98.3654 208.223 99.0204C208.223 99.6754 208.015 100.365 207.594 101.163C207.172 101.962 206.526 102.726 205.648 103.456C204.771 104.191 203.633 104.794 202.236 105.277C200.839 105.76 199.147 105.995 197.167 105.995C195.844 105.995 194.736 105.875 193.829 105.633C192.929 105.392 192.253 105.059 191.809 104.628C191.364 104.197 191.139 103.703 191.139 103.146C191.139 102.738 191.254 102.318 191.479 101.876C191.71 101.433 192.045 101.003 192.49 100.583C192.934 100.164 193.495 99.773 194.17 99.4053C194.846 99.0376 195.637 98.7274 196.555 98.4746L196.82 99.0434C195.879 99.526 195.232 100.066 194.874 100.675C194.516 101.284 194.343 101.887 194.343 102.496C194.343 103.507 194.701 104.237 195.411 104.68C196.122 105.122 196.999 105.346 198.044 105.346C198.881 105.346 199.747 105.214 200.637 104.95C201.526 104.685 202.351 104.329 203.114 103.887C203.876 103.444 204.488 102.933 204.944 102.353C205.4 101.772 205.631 101.163 205.631 100.531C205.631 100.152 205.51 99.8994 205.267 99.773C205.025 99.6466 204.626 99.5202 204.066 99.3938L198.235 97.9115C197.623 97.7622 197.126 97.4979 196.745 97.1359C196.364 96.7682 196.174 96.2684 196.174 95.6364C196.174 95.1308 196.352 94.6137 196.705 94.0794C197.063 93.5509 197.732 92.9591 198.725 92.3156C199.719 91.6721 201.15 90.9195 203.033 90.0577L203.038 90.0749ZM205.134 78.5786C206.635 78.5786 207.848 78.9118 208.778 79.584C209.707 80.2562 210.169 81.3363 210.169 82.8301C210.169 84.0424 209.828 85.2431 209.141 86.4324C208.454 87.6217 207.49 88.6041 206.243 89.374C204.996 90.1439 203.523 90.5288 201.82 90.5288C200.423 90.5288 199.245 90.1956 198.292 89.5234C197.34 88.8512 196.861 87.8113 196.861 86.3922C196.861 85.7085 197.005 84.9214 197.299 84.0194C197.594 83.1231 198.056 82.2613 198.691 81.4397C199.326 80.6182 200.169 79.9345 201.226 79.3887C202.282 78.8429 203.581 78.5728 205.134 78.5728V78.5786ZM204.984 79.2623C204.17 79.2623 203.483 79.4978 202.923 79.9632C202.363 80.4286 201.901 81.0261 201.532 81.7442C201.162 82.4624 200.885 83.2151 200.694 84.0022C200.504 84.7835 200.371 85.5017 200.296 86.1452C200.221 86.7886 200.18 87.2655 200.18 87.57C200.18 88.3801 200.365 88.9604 200.735 89.3166C201.104 89.6728 201.595 89.8451 202.201 89.8451C203.165 89.8451 203.951 89.5521 204.545 88.9718C205.14 88.3916 205.608 87.6677 205.937 86.8116C206.266 85.9498 206.491 85.0938 206.607 84.232C206.722 83.3702 206.78 82.652 206.78 82.0717C206.78 81.2099 206.664 80.532 206.439 80.0207C206.208 79.5151 205.729 79.2623 204.99 79.2623H204.984ZM207.842 80.555L207.155 80.2907C207.513 79.4289 208.119 78.6705 208.985 78.0155C209.851 77.3606 210.752 77.0274 211.693 77.0274C212.351 77.0274 212.888 77.2112 213.293 77.5789C213.697 77.9466 213.905 78.5211 213.905 79.3025C213.905 80.0092 213.726 80.532 213.373 80.8595C213.015 81.187 212.634 81.3536 212.23 81.3536C211.826 81.3536 211.433 81.2214 211.07 80.9571C210.7 80.6929 210.481 80.2677 210.4 79.6874C210.325 79.1072 210.487 78.3603 210.896 77.4468L211.393 77.5617C210.325 77.9638 209.563 78.389 209.107 78.8314C208.651 79.2738 208.229 79.8483 207.848 80.555H207.842Z" fill="#2D3E52"/>
<path d="M213.789 98.0437C213.991 98.1471 214.216 98.2275 214.459 98.2907C214.701 98.3539 215.059 98.3884 215.544 98.3884C216.664 98.3884 217.582 98.0552 218.31 97.383C219.032 96.7108 219.395 95.7456 219.395 94.4816C219.395 93.7002 219.251 92.9189 218.957 92.149C218.662 91.3791 218.148 90.4886 217.415 89.4717C216.832 88.6616 216.272 87.8343 215.735 86.984C215.204 86.1394 214.932 85.134 214.932 83.9677C214.932 82.8818 215.198 81.9396 215.735 81.141C216.272 80.3424 216.988 79.7162 217.888 79.2623C218.789 78.8084 219.776 78.5786 220.845 78.5786C221.584 78.5786 222.305 78.6648 223.015 78.8429C223.726 79.021 224.32 79.3427 224.788 79.8081C225.256 80.2735 225.492 80.9629 225.492 81.8764C225.492 82.1062 225.435 82.3762 225.319 82.6922C225.204 83.0082 225.019 83.2782 224.765 83.5081C224.511 83.7379 224.164 83.847 223.737 83.847C223.327 83.847 222.975 83.7034 222.669 83.4104C222.363 83.1174 222.213 82.7324 222.213 82.2556C222.213 81.8017 222.311 81.3651 222.502 80.9457C222.692 80.5262 222.952 80.1183 223.281 79.7104C222.796 79.4059 222.161 79.2565 221.376 79.2565C220.435 79.2565 219.649 79.5725 219.014 80.2045C218.379 80.8365 218.062 81.7213 218.062 82.8588C218.062 83.4391 218.148 83.9504 218.327 84.3928C218.506 84.8352 218.766 85.2949 219.107 85.7775C219.447 86.2601 219.863 86.8633 220.348 87.5987C220.983 88.5582 221.514 89.4832 221.947 90.368C222.38 91.2527 222.594 92.1892 222.594 93.1774C222.594 94.3437 222.294 95.3721 221.699 96.2684C221.104 97.1647 220.308 97.8656 219.315 98.3769C218.321 98.8825 217.23 99.1353 216.035 99.1353C215.169 99.1353 214.343 99.0089 213.558 98.7561C212.767 98.5033 212.126 98.1069 211.635 97.5611C211.139 97.0153 210.891 96.2914 210.891 95.3779C210.891 95.0217 211 94.6482 211.214 94.2575C211.433 93.8668 211.82 93.6715 212.375 93.6715C212.987 93.6715 213.414 93.9186 213.674 94.4127C213.928 94.9068 214.055 95.4583 214.055 96.0616C214.055 96.4637 214.02 96.8257 213.957 97.1417C213.893 97.4577 213.835 97.7564 213.783 98.0322L213.789 98.0437Z" fill="#2D3E52"/>
</g>
<defs>
<clipPath id="clip0_53_561">
<rect width="312" height="117.262" fill="white"/>
</clipPath>
</defs>
</svg>
